<?xml version="1.0" encoding="utf-8"?>
<!-- Generator: Adobe Illustrator 19.2.0, SVG Export Plug-In . SVG Version: 6.00 Build 0)  -->
<svg version="1.1" xmlns="http://www.w3.org/2000/svg" xmlns:xlink="http://www.w3.org/1999/xlink" x="0px" y="0px"
	 viewBox="0 0 459.5 256.7" style="enable-background:new 0 0 459.5 256.7;" xml:space="preserve">
<style type="text/css">
	.st0{fill:#002155;}
	.st1{fill:#003F70;}
	.st2{fill:#B5C3D9;}
	.st3{fill:#6A88AF;}
	.st4{display:none;}
	.st5{display:inline;fill:#003F70;}
	.st6{display:inline;fill:#B5C3D9;}
	.st7{display:inline;fill:#6A88AF;}
	.st8{fill:#F1F2F2;}
</style>
<g id="Layer_3">
</g>
<g id="Bernie1">
</g>
<g id="Bernie2" class="st4">
</g>
<g id="Ft.">
</g>
<g id="TheTaxPlan">
</g>
<g id="Layer_7">
</g>
<g id="Layer_6">
</g>
<g id="bernie_x5F_export">
	<path class="st1" d="M12.9,256.7h444.9l-13.4-67.6l-40.8-21.8c-3.6-2.3-8.1-1.7-14.3-2.7c-10.1-4.4-22.2-7.1-34.4-11.3
		c-6.9-2.7-13.7-4.9-20.1-5c-1.7-3.2-4.3-5.7-7.3-7.8l2.2-7.8c2.1,2.1,3.9,1.6,5.6,0c2.6-2.3,2.4-4.5,4.3-7.1
		c1.7-2.5,2.8-7.1,5.4-10.4c3.7-2.9,6.8-5.1,7.6-11c0.2-5.5-0.4-9.7-3-11c-2.4-0.7-4.7-0.7-7.1,0l-7.8,3.9l7.6-45.1
		c0,0-9.1-13.2-9.5-13.8c-0.4-0.6-24.2-17.7-24.2-17.7h-27.2l-26.8,6.3l-19.4,12.7l-9.5,33l7.3,22.9l-1.9,1.3
		c-1.9-2-2.6-1.6-2.6,0.4c0.3,1.9,1.5,3.4,2,5.8c0.4,5.4,1.9,8.8,4.7,10.1l1.7,3.7l1.1,9.9c0,6.1,2.2,11.5,4.8,16.8
		c-9.3-0.4-17.8-0.3-24.4,1.3c-9.1-1.7-15.1-4.9-22-4.7c-18.4-1.3-23.2-1.6-30.4-1.3c-7.5,0.7-13.1,4-16,11.4
		c-1.9,4.8-5.4,8.1-4.1,13.8c-3.4,5.2-9.6,8.4-8.2,10.4c-4.9,1.1-8.8,2.6-6.7,6.5l1.1,2.4c-8.2,2.1-14.8,4.6-14.7,8.4l-2.8,1.1
		c-5.2-3-7.3-1.3-8.8,1.3l-9.1,3.7c-4.3-1.6-8.6-2.9-12.1-1.1c-2.7,1.5-4.9,1.6-6.7,0.9L72.7,181c0.7-9.9-1.8-19.7-0.9-25
		c1.2-6.7,1-12.6-3-16.6c-1.1-6.8,1.5-6.9,4.5-10.2c2.8-3.5,6.2-6.4,8.8-12.3c5-13,9.8-21.1-2-33c0,0,0.6-5.4,0.1-10.6
		c-0.7-5.1-1.4-11-6.1-12.1c-1.7-0.2-3.6-0.4-6-0.7c-2.1,0.6-3.6,2.3-4.7,4.5c-0.7,1-1.5,1.3-2.6,0.7c-3.9-3.9-8.6-2.3-13.8,1.9
		c-1.8,1.3-3.5,1.1-5.2,0.4c-3.6-0.3-6.9,1.3-9.9,4.1c-6.4,0.6-9.2,3.2-9.9,7.1c0,0-3,5.8-3,10.1s2.1,8.2,2.4,12.9
		s0.4,13.4,3.5,17.3c0.9,5.4,2.8,14.7,2.8,14.7s-1.9,3-4.2,6.4c-2.3,3.4-2.5,7.5-2.5,7.5s-7.5,12.6-12.5,16.4
		c-5.4,5.4-8.3,17-7.8,23.7c0,0,3.2,20.9,7.3,23.1c1.1,4.3,2.2,14,2.2,17.7C10.3,232.7,10.3,254.4,12.9,256.7z"/>
	<path id="Shirt_4_" class="st2" d="M247,256.7h74.5c3.9-34.9,9.4-71.9,8.6-91.6c-1-11.6-2.1-22.1-3.7-20.1
		c-1.8,8.6-6.3,17.3-14.2,26.1c-6.3,6.4-14.8,11.3-23.7,16l-7.8,0.4c-4.4-6-9.7-10.3-15.5-13.8c-6.9-3.9-11.9-10.4-16.8-17.1
		c2.4,26.1,4.5,51.5,2.6,65.2C250.7,232.2,249.4,242.8,247,256.7z"/>
	<path id="Tie_4_" class="st3" d="M299.8,256.5c-1.8-12.3-4.8-23.3-9.9-32.4c2.4-4.4,4.1-9.1,4.9-14.3c0.9-4,1.6-7.9,1.4-11.9
		c-0.3-3.1-3-6.6-7.7-10.4h-7.9c-3.9,1.8-7.7,3.7-9.9,6.1c-2.6,3.6-3.2,6.6-2.2,9.1c1.6,4,1.4,7.9,0,11.7l-1.7,3.2
		c0.5,2.1,0.9,3.8,1.3,5.4c-3.7,8.8-5.6,20.9-7.3,33.5H299.8z"/>
	<path class="st2" d="M237.9,123.3c-1.2,1.3-2,3.2-2.2,5.8c-0.8-0.8-1.4-1.8-1.5-3.7c0-2.2,1.5-4.3,0.9-6.9c-0.6,1.2-1.3,1.8-2,1.9
		c1.4-1.7,1.7-3.4,1.1-5.2c-0.4-1.9-1.3-3-3-2.8c-0.8,0.1-1.4,1.1-2,2.2c0.1-1.8,1-6.2-0.4-6c-1.2,0.2-1.9,0.2-2.9-0.2
		c0.8-1.5,1.1-4.2,1.1-7.4l-4.2-5.4l2.8-3.7l-0.4-7.8l-2.4,3.4c0.5-2.3,0.7-4.6,0.4-6.1c-0.7-3.3-3.2-5.2-3.2-8.1
		c0.4-2,1.2-3.7,2.2-5.2c2.1-2.6,1.9-6.5,3.2-9.7c-1.3-0.1-3.6,1.3-5.4,0c3.3,0.2,5.6-1.5,7-4.7c2.7-8.7,3.7-17.2,8.7-24.4
		c-2.5-2.6-4.6-5.9-6.4-9.7c3.4,4.6,8.1,6.6,14.1,6c5.6-1.1,9.3-3,11-6c-1.5-2.8-5.2-3.7-10.1-3.7c-2.2,0.2-3.2,1.5-4.3,3
		c0.3-1.9,1-3.6,2.2-5c2.8-2,11.3-4.4,14-4.1c1.3,0.2,1.7,1.5,3.4,2.2c2.5,0.8,5.3,0.1,8-0.4c-2.4-2.3-8.4-4-14.9-5.6
		c7.7-0.4,14.8-0.2,20.5,1.3c2.4,0,4.3-0.4,5.6-1.3c2.1-1.3,2.8-3.3,2.8-5.6c0.5,1,7.6,8,9.5,8.9s11.6,5.4,11.5,5.2
		c0,0,15.1,6.1,19.2,8.2c4.1,2.1,9.1,7.1,9.1,7.1c3.3,2.8,7.3,3.7,11.7,3.4l-4.5,2.8c2.1,0.9,3.8,1.9,4.5,3.4
		c1.1,2,2.1,7.9,5.6,11.9c1.2,1.2,2.9,1.8,4.5,2.6c-1.4,0-2.6,0.2-3,1.3c-0.2,1.3,0.8,2.5,2,3.7l2.8,2.6c-1.2,0.3-2.4,0.2-3.5-0.4
		c2.5,3.1,5.4,7.7,5.8,9.3c0.4,1.6-0.1,6.1,0,9.1V84c-0.7-1.1-1.5-1.8-2.6-1.3c-1.1,1.4-1.8,2.9-1.5,4.7c2.1,1.4,3.4,3.4,4.1,5.9
		c-0.1,1.4-0.5,2.8-1.3,4.1l-2,3.4c-0.6-3.4-1.5-6.5-4.1-7.3c-1.3-0.4-2.4-0.9-3.5-1.5c-0.3,2,1.2,3.5,3.4,4.8
		c-2.2-1.1-4.3-2.2-5.8-1.9c-0.5,1.1-0.1,2.1,0.9,3.2c-1.4-0.5-2.6-0.3-3.4,1.1c-1.3,0.3-1.6,1.3-0.7,3.2c-1.6-0.6-3-1.4-3.9-0.7
		c-1.2-0.6-1.9-1.4-1.9-2.4l-5,3.2l0.4-2l-3.2,1.7c0.7-1.5,1.1-2.7,0.7-2.8c-0.4-0.5-1.2-0.2-2,0c2-1.8,3.2-3.7,3.2-5.8l-3.4-0.9
		c2-1.3,3.3-2.9,3.9-5.1l0.7-7.4c-0.7-1.3-2.4-1.6-4.3-1.5l1.3-9.7l-3.9,4.8c2.4-4.2,4.2-8.2,5.2-11.9c0.2-2.6-0.4-4.7-0.7-5.2
		c-0.3,1.2-1.3,1.7-1.9,1.5c-3.6-1.1-4.1-1.5-4.5-1.9l3.9-0.4c1.4-0.5,2.1-1.3,2.2-2.6l-0.4-9.5l-3.2-6.3c0,0-6.9,3-7.5,3.4
		c-5.1,1.2-7.7,0.4-11-1.7c-1.2-1-1.9-2.4-2-4.1c0,0,4.3,2.4,6.8,2.7s5.9-0.5,7.1-1.4c1.2-0.9,0.8-3.7,0.8-3.7
		c-0.3-2.6-9.3-1-18.3,0.2c-2.8,0.5-4.5,1.1-6.7,1.7c2.8-1.6,5.1-3.1,5.2-4.7l8-1.3c-5.7-2.3-11.6-4.5-22-5
		c-3.3,0.2-6.6,0.6-10.2,1.5c-2.6,1.2-4.7,3.2-6.7,5.2c0.7-1.4,1.4-2.8,0.7-3.5c-2.1,0.2-3.7,1.6-5.2,3c-3.6,0.9-7.4,2.8-11.2,5.2
		l-7.3,7.3c-0.1,1.7-0.6,2.9-1.5,3.9c-1,1-1.8,1-2,1.5c-0.9,1.8-0.5,3.9,0.2,6.1l-1.9-1.7c-0.3,2.4-0.7,4.6-0.9,6.3
		c-0.5,2.5-1.1,8-1.5,13.2c0,0-0.5,3.4-0.6,6.2c-0.1,2.8,0.4,19,0.4,19l0.9,8.4c-0.7-0.4-1.3,0.2-1.9,1.5c-0.6-0.7-1-1.5-0.9-2.8
		c-0.4-1.2-1.2-1.6-2.6-0.6c-0.1-2.1-0.3-4.1-1.3-5.2l-1.4-2.6c-2.2,1.1,1.7,6.1,1.6,9.8c0.8,4.2,2.3,6.8,4.5,7.7l1.6,3.7
		L237.9,123.3z"/>
	<path class="st3" d="M334.4,84.6l-10.8-2.4c-4.6-1-4.4-0.6-6.7-0.9h-4.1c-1.1-2.5-2.8-3.8-5-4.3c0,0-6.1-1.3-10.6-1.3
		c-5,0-9.3,0-14.3,0.7c-3,0.2-5.6,0.9-6.1,3.7v1.7c-3.3-1-6.6-1-9.9-0.2c-0.3-2.9-2-3.9-4.7-4.5c-2.6-0.5-10.5-1.6-15.5-1.5
		c-11.7,0.6-12.4,3.2-13.6,5.6h-6c-0.2,1.6,0,2.7,0.7,3.4c2-0.4,4-0.6,5.2,0c0,10.2,1.7,10.9,3.4,12.1c4.7,2,10.1,2.6,15.8,2.6
		c6.8-0.2,9.3-2.7,10.6-5.8l3.7-10.2c3.6-1.1,6.9-0.9,9.9,0.2c2.5,7.7,5,14.4,11.9,15.1c4.7,0.3,8.6,0.7,16.6-0.7
		c4.6-0.7,6.6-2.6,6.9-6.7l0.6-6l6-0.4c4.6-0.2,8.6,0.6,12.5,1.7l2.8,1L334.4,84.6z"/>
	<g>
		<path class="st8" d="M346.3,211.8c-0.1,0.1-0.1,0.1-0.2,0.2c-0.1,0-0.1,0.1-0.2,0.1c-0.1,0-0.2-0.1-0.3-0.2
			c-0.1-0.1-0.3-0.2-0.4-0.3c-0.2-0.1-0.4-0.2-0.6-0.3c-0.3-0.1-0.6-0.2-0.9-0.2c-0.4,0-0.7,0.1-1,0.2s-0.6,0.3-0.8,0.5
			s-0.4,0.4-0.5,0.7c-0.1,0.3-0.2,0.6-0.2,0.9c0,0.3,0.1,0.6,0.2,0.8s0.3,0.4,0.6,0.5c0.2,0.2,0.5,0.3,0.8,0.4
			c0.3,0.1,0.6,0.2,0.9,0.4s0.6,0.3,0.9,0.4c0.3,0.1,0.6,0.3,0.8,0.6c0.2,0.2,0.4,0.5,0.6,0.8c0.1,0.3,0.2,0.7,0.2,1.1
			c0,0.6-0.1,1.2-0.3,1.7s-0.5,1-0.9,1.4c-0.4,0.4-0.9,0.7-1.4,1c-0.6,0.2-1.2,0.4-1.9,0.4c-0.8,0-1.5-0.2-2.1-0.5
			c-0.6-0.3-1.1-0.7-1.5-1.2l0.6-0.8c0-0.1,0.1-0.1,0.2-0.2s0.2-0.1,0.2-0.1c0.1,0,0.2,0.1,0.4,0.2c0.1,0.1,0.3,0.3,0.5,0.5
			s0.5,0.3,0.8,0.4c0.3,0.1,0.7,0.2,1.1,0.2c0.4,0,0.8-0.1,1.1-0.2s0.6-0.3,0.8-0.5c0.2-0.2,0.4-0.5,0.5-0.8s0.2-0.7,0.2-1.1
			c0-0.3-0.1-0.6-0.2-0.8c-0.1-0.2-0.3-0.4-0.6-0.6c-0.2-0.2-0.5-0.3-0.8-0.4c-0.3-0.1-0.6-0.2-0.9-0.3s-0.6-0.2-0.9-0.4
			c-0.3-0.1-0.6-0.3-0.8-0.5c-0.2-0.2-0.4-0.5-0.6-0.8c-0.1-0.3-0.2-0.7-0.2-1.2c0-0.5,0.1-1,0.3-1.5c0.2-0.5,0.5-0.9,0.8-1.3
			c0.4-0.4,0.8-0.7,1.3-0.9c0.5-0.2,1.1-0.3,1.7-0.3c0.7,0,1.3,0.1,1.8,0.4c0.5,0.3,1,0.6,1.3,1L346.3,211.8z"/>
		<path class="st8" d="M354.7,215.6c0,0.4-0.1,0.8-0.2,1.1c-0.2,0.3-0.5,0.6-0.9,0.9c-0.4,0.3-1,0.5-1.8,0.7
			c-0.8,0.2-1.7,0.4-2.9,0.5c0,0.1,0,0.1,0,0.2c0,0.1,0,0.1,0,0.2c0,0.8,0.2,1.4,0.5,1.8c0.4,0.4,0.9,0.6,1.6,0.6
			c0.3,0,0.5,0,0.8-0.1c0.2-0.1,0.4-0.1,0.6-0.2s0.3-0.2,0.5-0.3c0.1-0.1,0.3-0.2,0.4-0.3s0.2-0.2,0.3-0.2c0.1-0.1,0.2-0.1,0.3-0.1
			c0.1,0,0.2,0.1,0.3,0.2l0.4,0.5c-0.3,0.3-0.6,0.6-0.9,0.8c-0.3,0.2-0.6,0.4-0.9,0.6c-0.3,0.1-0.6,0.3-1,0.3s-0.7,0.1-1.1,0.1
			c-0.5,0-1-0.1-1.4-0.3s-0.8-0.4-1.1-0.7c-0.3-0.3-0.5-0.7-0.7-1.2c-0.2-0.5-0.2-1-0.2-1.5c0-0.5,0-0.9,0.1-1.4
			c0.1-0.5,0.2-0.9,0.4-1.3c0.2-0.4,0.4-0.8,0.7-1.2c0.3-0.4,0.6-0.7,0.9-0.9c0.4-0.3,0.7-0.5,1.2-0.6c0.4-0.2,0.9-0.2,1.4-0.2
			c0.5,0,0.9,0.1,1.2,0.2s0.6,0.3,0.8,0.5s0.4,0.4,0.5,0.7C354.7,215.1,354.7,215.3,354.7,215.6z M352,214.6c-0.4,0-0.7,0.1-1,0.2
			c-0.3,0.2-0.6,0.4-0.8,0.6c-0.2,0.3-0.5,0.6-0.6,1c-0.2,0.4-0.3,0.8-0.4,1.2c0.9-0.1,1.7-0.2,2.2-0.4c0.6-0.1,1-0.3,1.3-0.5
			s0.5-0.4,0.6-0.6c0.1-0.2,0.1-0.4,0.1-0.6c0-0.1,0-0.2-0.1-0.3s-0.1-0.2-0.2-0.3c-0.1-0.1-0.2-0.2-0.4-0.2
			C352.4,214.7,352.2,214.6,352,214.6z"/>
		<path class="st8" d="M355.7,222.7l1.1-9.1h0.8c0.4,0,0.5,0.2,0.5,0.5l-0.1,1.8c0.5-0.8,1-1.4,1.6-1.8c0.6-0.4,1.2-0.6,1.9-0.6
			c0.7,0,1.2,0.2,1.6,0.7c0.4,0.5,0.6,1.1,0.6,2c0,0.1,0,0.2,0,0.4c0,0.1,0,0.3,0,0.4l-0.7,5.8h-1.6l0.7-5.8c0-0.1,0-0.2,0-0.3
			c0-0.1,0-0.2,0-0.3c0-0.5-0.1-0.9-0.3-1.1c-0.2-0.2-0.5-0.4-0.9-0.4c-0.3,0-0.6,0.1-0.9,0.2c-0.3,0.2-0.6,0.4-0.9,0.7
			c-0.3,0.3-0.5,0.6-0.8,1c-0.2,0.4-0.4,0.9-0.6,1.4l-0.5,4.6H355.7z"/>
		<path class="st8" d="M371.9,222.7h-0.8c-0.2,0-0.4-0.1-0.4-0.2c-0.1-0.1-0.1-0.2-0.1-0.4l0.2-1.8c-0.2,0.4-0.4,0.7-0.7,1
			s-0.5,0.6-0.8,0.8c-0.3,0.2-0.6,0.4-0.9,0.5c-0.3,0.1-0.6,0.2-1,0.2c-0.4,0-0.7-0.1-1-0.2c-0.3-0.1-0.5-0.3-0.8-0.6
			c-0.2-0.3-0.4-0.6-0.5-1c-0.1-0.4-0.2-0.9-0.2-1.4c0-0.5,0.1-1.1,0.2-1.6c0.1-0.5,0.3-1,0.6-1.5c0.2-0.5,0.5-0.9,0.9-1.3
			c0.3-0.4,0.7-0.7,1.2-1c0.4-0.3,0.9-0.5,1.4-0.6c0.5-0.2,1-0.2,1.5-0.2c0.4,0,0.8,0,1.1,0.1s0.7,0.2,1.1,0.3L371.9,222.7z
			 M368,221.5c0.3,0,0.6-0.1,0.9-0.3c0.3-0.2,0.5-0.4,0.8-0.7c0.3-0.3,0.5-0.7,0.7-1.1c0.2-0.4,0.4-0.9,0.6-1.4l0.4-3.1
			c-0.1-0.1-0.3-0.2-0.4-0.2s-0.3,0-0.4,0c-0.4,0-0.7,0.1-1,0.2c-0.3,0.1-0.7,0.3-0.9,0.5c-0.3,0.2-0.6,0.5-0.8,0.7
			c-0.2,0.3-0.4,0.6-0.6,1c-0.2,0.3-0.3,0.7-0.4,1.1c-0.1,0.4-0.1,0.8-0.1,1.2C366.6,220.8,367.1,221.5,368,221.5z"/>
		<path class="st8" d="M375.1,221c0,0,0-0.1,0-0.1s0-0.1,0-0.2c0-0.1,0-0.2,0-0.4c0-0.2,0-0.4,0.1-0.7l0.6-4.6h-1
			c-0.1,0-0.1,0-0.2-0.1s-0.1-0.1-0.1-0.2c0,0,0-0.1,0-0.1s0-0.1,0-0.2c0-0.1,0-0.1,0-0.2c0-0.1,0-0.1,0-0.2l1.4-0.2l0.7-2.8
			c0-0.1,0.1-0.2,0.1-0.2c0.1-0.1,0.1-0.1,0.2-0.1h0.8l-0.4,3.1h2.4l-0.1,1.2h-2.4l-0.5,4.5c0,0.2-0.1,0.4-0.1,0.6
			c0,0.2,0,0.3,0,0.4c0,0.1,0,0.2,0,0.2c0,0,0,0.1,0,0.1c0,0.3,0.1,0.5,0.2,0.7c0.1,0.1,0.3,0.2,0.6,0.2c0.2,0,0.3,0,0.4-0.1
			c0.1,0,0.2-0.1,0.3-0.1c0.1-0.1,0.2-0.1,0.2-0.1c0.1,0,0.1-0.1,0.2-0.1s0.1,0,0.1,0c0,0,0.1,0.1,0.1,0.1l0.3,0.8
			c-0.3,0.3-0.6,0.5-1,0.6c-0.4,0.1-0.8,0.2-1.1,0.2c-0.6,0-1-0.2-1.4-0.5S375.1,221.6,375.1,221z"/>
		<path class="st8" d="M383.7,222.8c-0.5,0-1-0.1-1.4-0.3c-0.4-0.2-0.8-0.4-1.1-0.7c-0.3-0.3-0.5-0.7-0.7-1.2
			c-0.2-0.5-0.3-1-0.3-1.6c0-0.8,0.1-1.5,0.4-2.2c0.2-0.7,0.6-1.3,1-1.8c0.4-0.5,0.9-0.9,1.5-1.2s1.2-0.4,1.8-0.4
			c0.5,0,1,0.1,1.4,0.3s0.8,0.4,1.1,0.7c0.3,0.3,0.5,0.7,0.7,1.2s0.3,1,0.3,1.6c0,0.8-0.1,1.5-0.4,2.2c-0.2,0.7-0.6,1.3-1,1.8
			c-0.4,0.5-0.9,0.9-1.5,1.2C385,222.7,384.4,222.8,383.7,222.8z M383.8,221.6c0.4,0,0.8-0.1,1.2-0.4c0.4-0.2,0.7-0.6,0.9-1
			c0.3-0.4,0.4-0.9,0.6-1.4c0.1-0.5,0.2-1.1,0.2-1.6c0-0.8-0.2-1.5-0.5-1.9c-0.3-0.4-0.8-0.6-1.4-0.6c-0.4,0-0.8,0.1-1.2,0.4
			c-0.4,0.2-0.7,0.6-0.9,1s-0.4,0.9-0.6,1.4c-0.1,0.5-0.2,1.1-0.2,1.6c0,0.8,0.2,1.5,0.5,1.9S383.2,221.6,383.8,221.6z"/>
		<path class="st8" d="M389.5,222.7l1.1-9.1h0.8c0.2,0,0.3,0,0.4,0.1c0.1,0.1,0.1,0.2,0.1,0.4c0,0,0,0.1,0,0.1s0,0.1,0,0.1
			c0,0,0,0.1,0,0.1s0,0.1,0,0.1l-0.1,1.7c0.4-0.8,0.8-1.5,1.3-1.9s1-0.7,1.5-0.7c0.3,0,0.5,0.1,0.8,0.2l-0.3,1.5
			c-0.3-0.1-0.6-0.2-0.8-0.2c-0.6,0-1.1,0.3-1.6,0.9s-0.8,1.4-1.1,2.6l-0.5,4.2H389.5z"/>
		<path class="st8" d="M335.4,244.3l1.6-12.9h3.8c0.7,0,1.2,0.1,1.7,0.2c0.5,0.1,0.9,0.3,1.2,0.6c0.3,0.2,0.5,0.6,0.7,0.9
			c0.1,0.4,0.2,0.8,0.2,1.2c0,0.4-0.1,0.8-0.2,1.1c-0.1,0.3-0.3,0.7-0.5,1s-0.5,0.6-0.8,0.8c-0.3,0.2-0.7,0.4-1.2,0.5
			c0.8,0.2,1.4,0.5,1.7,0.9c0.4,0.4,0.6,1,0.6,1.7c0,0.6-0.1,1.1-0.3,1.6c-0.2,0.5-0.5,0.9-0.9,1.3c-0.4,0.4-0.9,0.6-1.5,0.8
			s-1.2,0.3-2,0.3H335.4z M337.8,238.4l-0.6,4.6h2.5c0.5,0,0.9-0.1,1.3-0.2c0.4-0.1,0.7-0.3,0.9-0.5c0.2-0.2,0.4-0.5,0.5-0.8
			s0.2-0.7,0.2-1.1c0-0.6-0.2-1-0.6-1.4s-1-0.5-1.7-0.5H337.8z M338,237.2h2.1c0.5,0,0.9-0.1,1.3-0.2s0.7-0.3,0.9-0.5
			c0.2-0.2,0.4-0.5,0.5-0.8c0.1-0.3,0.2-0.7,0.2-1.1c0-0.6-0.2-1.1-0.6-1.4c-0.4-0.3-0.9-0.5-1.7-0.5h-2.1L338,237.2z"/>
		<path class="st8" d="M353.2,237.2c0,0.4-0.1,0.8-0.2,1.1c-0.2,0.3-0.5,0.6-0.9,0.9c-0.4,0.3-1,0.5-1.8,0.7
			c-0.8,0.2-1.7,0.4-2.9,0.5c0,0.1,0,0.1,0,0.2c0,0.1,0,0.1,0,0.2c0,0.8,0.2,1.4,0.5,1.8c0.4,0.4,0.9,0.6,1.6,0.6
			c0.3,0,0.5,0,0.8-0.1c0.2-0.1,0.4-0.1,0.6-0.2s0.3-0.2,0.5-0.3c0.1-0.1,0.3-0.2,0.4-0.3s0.2-0.2,0.3-0.2c0.1-0.1,0.2-0.1,0.3-0.1
			c0.1,0,0.2,0.1,0.3,0.2l0.4,0.5c-0.3,0.3-0.6,0.6-0.9,0.8c-0.3,0.2-0.6,0.4-0.9,0.6c-0.3,0.1-0.6,0.3-1,0.3s-0.7,0.1-1.1,0.1
			c-0.5,0-1-0.1-1.4-0.3s-0.8-0.4-1.1-0.7c-0.3-0.3-0.5-0.7-0.7-1.2c-0.2-0.5-0.2-1-0.2-1.5c0-0.5,0-0.9,0.1-1.4
			c0.1-0.5,0.2-0.9,0.4-1.3c0.2-0.4,0.4-0.8,0.7-1.2c0.3-0.4,0.6-0.7,0.9-0.9c0.4-0.3,0.7-0.5,1.2-0.6c0.4-0.2,0.9-0.2,1.4-0.2
			c0.5,0,0.9,0.1,1.2,0.2s0.6,0.3,0.8,0.5s0.4,0.4,0.5,0.7C353.1,236.7,353.2,236.9,353.2,237.2z M350.4,236.2c-0.4,0-0.7,0.1-1,0.2
			c-0.3,0.2-0.6,0.4-0.8,0.6c-0.2,0.3-0.5,0.6-0.6,1c-0.2,0.4-0.3,0.8-0.4,1.2c0.9-0.1,1.7-0.2,2.2-0.4c0.6-0.1,1-0.3,1.3-0.5
			s0.5-0.4,0.6-0.6c0.1-0.2,0.1-0.4,0.1-0.6c0-0.1,0-0.2-0.1-0.3s-0.1-0.2-0.2-0.3c-0.1-0.1-0.2-0.2-0.4-0.2
			C350.9,236.3,350.7,236.2,350.4,236.2z"/>
		<path class="st8" d="M354.2,244.3l1.1-9.1h0.8c0.2,0,0.3,0,0.4,0.1c0.1,0.1,0.1,0.2,0.1,0.4c0,0,0,0.1,0,0.1s0,0.1,0,0.1
			c0,0,0,0.1,0,0.1s0,0.1,0,0.1l-0.1,1.7c0.4-0.8,0.8-1.5,1.3-1.9s1-0.7,1.5-0.7c0.3,0,0.5,0.1,0.8,0.2l-0.3,1.5
			c-0.3-0.1-0.6-0.2-0.8-0.2c-0.6,0-1.1,0.3-1.6,0.9s-0.8,1.4-1.1,2.6l-0.5,4.2H354.2z"/>
		<path class="st8" d="M360.5,244.3l1.1-9.1h0.8c0.4,0,0.5,0.2,0.5,0.5l-0.1,1.8c0.5-0.8,1-1.4,1.6-1.8c0.6-0.4,1.2-0.6,1.9-0.6
			c0.7,0,1.2,0.2,1.6,0.7c0.4,0.5,0.6,1.1,0.6,2c0,0.1,0,0.2,0,0.4c0,0.1,0,0.3,0,0.4l-0.7,5.8h-1.6l0.7-5.8c0-0.1,0-0.2,0-0.3
			c0-0.1,0-0.2,0-0.3c0-0.5-0.1-0.9-0.3-1.1c-0.2-0.2-0.5-0.4-0.9-0.4c-0.3,0-0.6,0.1-0.9,0.2c-0.3,0.2-0.6,0.4-0.9,0.7
			c-0.3,0.3-0.5,0.6-0.8,1c-0.2,0.4-0.4,0.9-0.6,1.4l-0.5,4.6H360.5z"/>
		<path class="st8" d="M372.9,235.2l-1.1,9.1h-1.6l1.1-9.1H372.9z M373.5,232.3c0,0.2,0,0.3-0.1,0.4c-0.1,0.1-0.1,0.3-0.3,0.4
			c-0.1,0.1-0.2,0.2-0.4,0.2c-0.1,0.1-0.3,0.1-0.4,0.1c-0.1,0-0.3,0-0.4-0.1c-0.1-0.1-0.2-0.1-0.3-0.2c-0.1-0.1-0.2-0.2-0.2-0.4
			c-0.1-0.1-0.1-0.3-0.1-0.4c0-0.2,0-0.3,0.1-0.4c0.1-0.1,0.1-0.3,0.2-0.4c0.1-0.1,0.2-0.2,0.4-0.3c0.1-0.1,0.3-0.1,0.4-0.1
			c0.1,0,0.3,0,0.4,0.1c0.1,0.1,0.2,0.1,0.4,0.2c0.1,0.1,0.2,0.2,0.2,0.4C373.4,232,373.5,232.2,373.5,232.3z"/>
		<path class="st8" d="M381.6,237.2c0,0.4-0.1,0.8-0.2,1.1c-0.2,0.3-0.5,0.6-0.9,0.9c-0.4,0.3-1,0.5-1.8,0.7
			c-0.8,0.2-1.7,0.4-2.9,0.5c0,0.1,0,0.1,0,0.2c0,0.1,0,0.1,0,0.2c0,0.8,0.2,1.4,0.5,1.8c0.4,0.4,0.9,0.6,1.6,0.6
			c0.3,0,0.5,0,0.8-0.1c0.2-0.1,0.4-0.1,0.6-0.2s0.3-0.2,0.5-0.3c0.1-0.1,0.3-0.2,0.4-0.3s0.2-0.2,0.3-0.2c0.1-0.1,0.2-0.1,0.3-0.1
			c0.1,0,0.2,0.1,0.3,0.2l0.4,0.5c-0.3,0.3-0.6,0.6-0.9,0.8c-0.3,0.2-0.6,0.4-0.9,0.6c-0.3,0.1-0.6,0.3-1,0.3s-0.7,0.1-1.1,0.1
			c-0.5,0-1-0.1-1.4-0.3s-0.8-0.4-1.1-0.7c-0.3-0.3-0.5-0.7-0.7-1.2c-0.2-0.5-0.2-1-0.2-1.5c0-0.5,0-0.9,0.1-1.4
			c0.1-0.5,0.2-0.9,0.4-1.3c0.2-0.4,0.4-0.8,0.7-1.2c0.3-0.4,0.6-0.7,0.9-0.9c0.4-0.3,0.7-0.5,1.2-0.6c0.4-0.2,0.9-0.2,1.4-0.2
			c0.5,0,0.9,0.1,1.2,0.2s0.6,0.3,0.8,0.5s0.4,0.4,0.5,0.7C381.6,236.7,381.6,236.9,381.6,237.2z M378.9,236.2c-0.4,0-0.7,0.1-1,0.2
			c-0.3,0.2-0.6,0.4-0.8,0.6c-0.2,0.3-0.5,0.6-0.6,1c-0.2,0.4-0.3,0.8-0.4,1.2c0.9-0.1,1.7-0.2,2.2-0.4c0.6-0.1,1-0.3,1.3-0.5
			s0.5-0.4,0.6-0.6c0.1-0.2,0.1-0.4,0.1-0.6c0-0.1,0-0.2-0.1-0.3s-0.1-0.2-0.2-0.3c-0.1-0.1-0.2-0.2-0.4-0.2
			C379.3,236.3,379.1,236.2,378.9,236.2z"/>
		<path class="st8" d="M393.8,233.4c-0.1,0.1-0.1,0.1-0.2,0.2c-0.1,0-0.1,0.1-0.2,0.1c-0.1,0-0.2-0.1-0.3-0.2
			c-0.1-0.1-0.3-0.2-0.4-0.3c-0.2-0.1-0.4-0.2-0.6-0.3c-0.3-0.1-0.6-0.2-0.9-0.2c-0.4,0-0.7,0.1-1,0.2s-0.6,0.3-0.8,0.5
			s-0.4,0.4-0.5,0.7c-0.1,0.3-0.2,0.6-0.2,0.9c0,0.3,0.1,0.6,0.2,0.8s0.3,0.4,0.6,0.5c0.2,0.2,0.5,0.3,0.8,0.4
			c0.3,0.1,0.6,0.2,0.9,0.4s0.6,0.3,0.9,0.4c0.3,0.1,0.6,0.3,0.8,0.6c0.2,0.2,0.4,0.5,0.6,0.8c0.1,0.3,0.2,0.7,0.2,1.1
			c0,0.6-0.1,1.2-0.3,1.7s-0.5,1-0.9,1.4c-0.4,0.4-0.9,0.7-1.4,1c-0.6,0.2-1.2,0.4-1.9,0.4c-0.8,0-1.5-0.2-2.1-0.5
			c-0.6-0.3-1.1-0.7-1.5-1.2l0.6-0.8c0-0.1,0.1-0.1,0.2-0.2s0.2-0.1,0.2-0.1c0.1,0,0.2,0.1,0.4,0.2c0.1,0.1,0.3,0.3,0.5,0.5
			s0.5,0.3,0.8,0.4c0.3,0.1,0.7,0.2,1.1,0.2c0.4,0,0.8-0.1,1.1-0.2s0.6-0.3,0.8-0.5c0.2-0.2,0.4-0.5,0.5-0.8s0.2-0.7,0.2-1.1
			c0-0.3-0.1-0.6-0.2-0.8c-0.1-0.2-0.3-0.4-0.6-0.6c-0.2-0.2-0.5-0.3-0.8-0.4c-0.3-0.1-0.6-0.2-0.9-0.3s-0.6-0.2-0.9-0.4
			c-0.3-0.1-0.6-0.3-0.8-0.5c-0.2-0.2-0.4-0.5-0.6-0.8c-0.1-0.3-0.2-0.7-0.2-1.2c0-0.5,0.1-1,0.3-1.5c0.2-0.5,0.5-0.9,0.8-1.3
			c0.4-0.4,0.8-0.7,1.3-0.9c0.5-0.2,1.1-0.3,1.7-0.3c0.7,0,1.3,0.1,1.8,0.4c0.5,0.3,1,0.6,1.3,1L393.8,233.4z"/>
		<path class="st8" d="M401.6,244.3h-0.8c-0.2,0-0.4-0.1-0.4-0.2c-0.1-0.1-0.1-0.2-0.1-0.4l0.2-1.8c-0.2,0.4-0.4,0.7-0.7,1
			s-0.5,0.6-0.8,0.8c-0.3,0.2-0.6,0.4-0.9,0.5c-0.3,0.1-0.6,0.2-1,0.2c-0.4,0-0.7-0.1-1-0.2c-0.3-0.1-0.5-0.3-0.8-0.6
			c-0.2-0.3-0.4-0.6-0.5-1c-0.1-0.4-0.2-0.9-0.2-1.4c0-0.5,0.1-1.1,0.2-1.6c0.1-0.5,0.3-1,0.6-1.5c0.2-0.5,0.5-0.9,0.9-1.3
			c0.3-0.4,0.7-0.7,1.2-1c0.4-0.3,0.9-0.5,1.4-0.6c0.5-0.2,1-0.2,1.5-0.2c0.4,0,0.8,0,1.1,0.1s0.7,0.2,1.1,0.3L401.6,244.3z
			 M397.7,243.1c0.3,0,0.6-0.1,0.9-0.3c0.3-0.2,0.5-0.4,0.8-0.7c0.3-0.3,0.5-0.7,0.7-1.1c0.2-0.4,0.4-0.9,0.6-1.4l0.4-3.1
			c-0.1-0.1-0.3-0.2-0.4-0.2s-0.3,0-0.4,0c-0.4,0-0.7,0.1-1,0.2c-0.3,0.1-0.7,0.3-0.9,0.5c-0.3,0.2-0.6,0.5-0.8,0.7
			c-0.2,0.3-0.4,0.6-0.6,1c-0.2,0.3-0.3,0.7-0.4,1.1c-0.1,0.4-0.1,0.8-0.1,1.2C396.3,242.4,396.8,243.1,397.7,243.1z"/>
		<path class="st8" d="M404,244.3l1.1-9.1h0.8c0.4,0,0.5,0.2,0.5,0.5l-0.1,1.8c0.5-0.8,1-1.4,1.6-1.8c0.6-0.4,1.2-0.6,1.9-0.6
			c0.7,0,1.2,0.2,1.6,0.7c0.4,0.5,0.6,1.1,0.6,2c0,0.1,0,0.2,0,0.4c0,0.1,0,0.3,0,0.4l-0.7,5.8h-1.6l0.7-5.8c0-0.1,0-0.2,0-0.3
			c0-0.1,0-0.2,0-0.3c0-0.5-0.1-0.9-0.3-1.1c-0.2-0.2-0.5-0.4-0.9-0.4c-0.3,0-0.6,0.1-0.9,0.2c-0.3,0.2-0.6,0.4-0.9,0.7
			c-0.3,0.3-0.5,0.6-0.8,1c-0.2,0.4-0.4,0.9-0.6,1.4l-0.5,4.6H404z"/>
		<path class="st8" d="M419.6,244.3c-0.2,0-0.4-0.1-0.4-0.2c-0.1-0.1-0.1-0.2-0.1-0.4l0.2-1.9c-0.2,0.4-0.5,0.7-0.7,1.1
			c-0.3,0.3-0.6,0.6-0.9,0.8c-0.3,0.2-0.6,0.4-0.9,0.5c-0.3,0.1-0.6,0.2-1,0.2c-0.8,0-1.4-0.3-1.8-0.9c-0.4-0.6-0.6-1.4-0.6-2.5
			c0-0.5,0.1-1,0.2-1.5c0.1-0.5,0.2-1,0.4-1.4c0.2-0.5,0.4-0.9,0.7-1.3c0.3-0.4,0.6-0.7,0.9-1s0.7-0.5,1.1-0.7s0.8-0.2,1.2-0.2
			c0.4,0,0.9,0.1,1.2,0.3s0.7,0.4,0.9,0.7l0.6-5h1.6l-1.6,13.3H419.6z M416.4,243.2c0.3,0,0.6-0.1,0.9-0.3c0.3-0.2,0.6-0.4,0.8-0.7
			c0.3-0.3,0.5-0.7,0.8-1.1c0.2-0.4,0.4-0.9,0.6-1.4l0.3-2.4c-0.2-0.3-0.5-0.5-0.8-0.7c-0.3-0.1-0.6-0.2-1-0.2
			c-0.5,0-0.9,0.1-1.3,0.4s-0.7,0.6-1,1.1c-0.3,0.4-0.5,0.9-0.6,1.5c-0.1,0.6-0.2,1.1-0.2,1.6c0,0.7,0.1,1.3,0.4,1.6
			S415.9,243.2,416.4,243.2z"/>
		<path class="st8" d="M430.2,237.2c0,0.4-0.1,0.8-0.2,1.1c-0.2,0.3-0.5,0.6-0.9,0.9c-0.4,0.3-1,0.5-1.8,0.7
			c-0.8,0.2-1.7,0.4-2.9,0.5c0,0.1,0,0.1,0,0.2c0,0.1,0,0.1,0,0.2c0,0.8,0.2,1.4,0.5,1.8c0.4,0.4,0.9,0.6,1.6,0.6
			c0.3,0,0.5,0,0.8-0.1c0.2-0.1,0.4-0.1,0.6-0.2s0.3-0.2,0.5-0.3c0.1-0.1,0.3-0.2,0.4-0.3s0.2-0.2,0.3-0.2c0.1-0.1,0.2-0.1,0.3-0.1
			c0.1,0,0.2,0.1,0.3,0.2l0.4,0.5c-0.3,0.3-0.6,0.6-0.9,0.8c-0.3,0.2-0.6,0.4-0.9,0.6c-0.3,0.1-0.6,0.3-1,0.3s-0.7,0.1-1.1,0.1
			c-0.5,0-1-0.1-1.4-0.3s-0.8-0.4-1.1-0.7c-0.3-0.3-0.5-0.7-0.7-1.2c-0.2-0.5-0.2-1-0.2-1.5c0-0.5,0-0.9,0.1-1.4
			c0.1-0.5,0.2-0.9,0.4-1.3c0.2-0.4,0.4-0.8,0.7-1.2c0.3-0.4,0.6-0.7,0.9-0.9c0.4-0.3,0.7-0.5,1.2-0.6c0.4-0.2,0.9-0.2,1.4-0.2
			c0.5,0,0.9,0.1,1.2,0.2s0.6,0.3,0.8,0.5s0.4,0.4,0.5,0.7C430.2,236.7,430.2,236.9,430.2,237.2z M427.5,236.2c-0.4,0-0.7,0.1-1,0.2
			c-0.3,0.2-0.6,0.4-0.8,0.6c-0.2,0.3-0.5,0.6-0.6,1c-0.2,0.4-0.3,0.8-0.4,1.2c0.9-0.1,1.7-0.2,2.2-0.4c0.6-0.1,1-0.3,1.3-0.5
			s0.5-0.4,0.6-0.6c0.1-0.2,0.1-0.4,0.1-0.6c0-0.1,0-0.2-0.1-0.3s-0.1-0.2-0.2-0.3c-0.1-0.1-0.2-0.2-0.4-0.2
			C427.9,236.3,427.7,236.2,427.5,236.2z"/>
		<path class="st8" d="M431.2,244.3l1.1-9.1h0.8c0.2,0,0.3,0,0.4,0.1c0.1,0.1,0.1,0.2,0.1,0.4c0,0,0,0.1,0,0.1s0,0.1,0,0.1
			c0,0,0,0.1,0,0.1s0,0.1,0,0.1l-0.1,1.7c0.4-0.8,0.8-1.5,1.3-1.9s1-0.7,1.5-0.7c0.3,0,0.5,0.1,0.8,0.2l-0.3,1.5
			c-0.3-0.1-0.6-0.2-0.8-0.2c-0.6,0-1.1,0.3-1.6,0.9s-0.8,1.4-1.1,2.6l-0.5,4.2H431.2z"/>
		<path class="st8" d="M443.4,236.7c0,0.1-0.1,0.1-0.1,0.2c0,0-0.1,0-0.2,0c-0.1,0-0.2,0-0.3-0.1c-0.1-0.1-0.2-0.1-0.4-0.2
			c-0.1-0.1-0.3-0.2-0.5-0.2c-0.2-0.1-0.5-0.1-0.7-0.1c-0.3,0-0.5,0-0.7,0.1c-0.2,0.1-0.4,0.2-0.6,0.3c-0.2,0.1-0.3,0.3-0.4,0.5
			c-0.1,0.2-0.1,0.4-0.1,0.6c0,0.3,0.1,0.5,0.3,0.7s0.4,0.3,0.7,0.4s0.6,0.2,0.9,0.4c0.3,0.1,0.6,0.3,0.9,0.4s0.5,0.4,0.7,0.7
			c0.2,0.3,0.3,0.6,0.3,1.1c0,0.4-0.1,0.8-0.2,1.2s-0.4,0.7-0.7,1c-0.3,0.3-0.7,0.5-1.1,0.7s-0.9,0.3-1.5,0.3
			c-0.6,0-1.1-0.1-1.5-0.3c-0.4-0.2-0.8-0.5-1.1-0.8l0.4-0.6c0-0.1,0.1-0.1,0.2-0.2c0.1,0,0.1-0.1,0.3-0.1c0.1,0,0.2,0,0.3,0.1
			c0.1,0.1,0.2,0.2,0.4,0.3c0.1,0.1,0.3,0.2,0.5,0.3s0.5,0.1,0.8,0.1c0.3,0,0.6,0,0.8-0.1s0.4-0.2,0.6-0.4c0.2-0.1,0.3-0.3,0.4-0.5
			c0.1-0.2,0.1-0.4,0.1-0.6c0-0.3-0.1-0.5-0.3-0.7c-0.2-0.2-0.4-0.3-0.7-0.5c-0.3-0.1-0.6-0.2-0.9-0.3c-0.3-0.1-0.6-0.2-0.9-0.4
			c-0.3-0.2-0.5-0.4-0.7-0.6c-0.2-0.3-0.3-0.6-0.3-1.1c0-0.4,0.1-0.8,0.2-1.1c0.2-0.4,0.4-0.7,0.7-0.9c0.3-0.3,0.6-0.5,1-0.7
			c0.4-0.2,0.9-0.2,1.4-0.2c0.5,0,1,0.1,1.4,0.3c0.4,0.2,0.8,0.4,1.1,0.7L443.4,236.7z"/>
	</g>
</g>
</svg>
