<?xml version="1.0" encoding="utf-8"?>
<!-- Generator: Adobe Illustrator 18.1.1, SVG Export Plug-In . SVG Version: 6.00 Build 0)  -->
<svg xmlns="http://www.w3.org/2000/svg" xmlns:xlink="http://www.w3.org/1999/xlink" version="1.1" id="Layer_1" x="0px" y="0px" viewBox="0 0 50 50" enable-background="new 0 0 50 50" xml:space="preserve" fill="#000000">
<path fill="none" stroke="#000000" stroke-width="2" stroke-linejoin="round" stroke-miterlimit="10" d="M31,10H19c-0.6,0-1-0.4-1-1  V3c0-0.6,0.4-1,1-1h12c0.6,0,1,0.4,1,1v6C32,9.6,31.6,10,31,10z"/>
<polyline fill="none" stroke="#000000" stroke-width="2" stroke-miterlimit="10" points="18,8 11,8 11,42 39,42 39,8 32,8 "/>
<line fill="none" stroke="#000000" stroke-width="2" stroke-miterlimit="10" x1="16" y1="20" x2="34" y2="20"/>
<line fill="none" stroke="#000000" stroke-width="2" stroke-miterlimit="10" x1="16" y1="26" x2="34" y2="26"/>
<line fill="none" stroke="#000000" stroke-width="2" stroke-miterlimit="10" x1="16" y1="32" x2="34" y2="32"/>
<path fill="none" stroke="#000000" stroke-width="2" stroke-linejoin="round" stroke-miterlimit="10" d="M18,4H9C7.9,4,7,4.9,7,6v38  c0,1.1,0.9,2,2,2h32c1.1,0,2-0.9,2-2V6c0-1.1-0.9-2-2-2h-9"/>
</svg>
