<?xml version="1.0" encoding="utf-8"?>
<!-- Generator: Adobe Illustrator 18.1.1, SVG Export Plug-In . SVG Version: 6.00 Build 0)  -->
<svg xmlns="http://www.w3.org/2000/svg" xmlns:xlink="http://www.w3.org/1999/xlink" version="1.1" id="Layer_1" x="0px" y="0px" viewBox="0 0 26 26" enable-background="new 0 0 26 26" xml:space="preserve" fill="#000000">
<path d="M18.5,21.7L4.3,7.5C3.9,7,3.9,6.3,4.3,5.9l1.6-1.6c0.4-0.4,1.1-0.4,1.6,0l14.2,14.2c0.4,0.4,0.4,1.1,0,1.6l-1.6,1.6  C19.7,22.1,19,22.1,18.5,21.7z" fill="#000000"/>
<path d="M4.3,18.5L18.5,4.3c0.4-0.4,1.1-0.4,1.6,0l1.6,1.6c0.4,0.4,0.4,1.1,0,1.6L7.5,21.7c-0.4,0.4-1.1,0.4-1.6,0l-1.6-1.6  C3.9,19.7,3.9,19,4.3,18.5z" fill="#000000"/>
</svg>
