<?xml version="1.0" encoding="utf-8"?>
<!-- Generator: Adobe Illustrator 17.0.0, SVG Export Plug-In . SVG Version: 6.00 Build 0)  -->
<!DOCTYPE svg PUBLIC "-//W3C//DTD SVG 1.1//EN" "http://www.w3.org/Graphics/SVG/1.1/DTD/svg11.dtd">
<svg xmlns="http://www.w3.org/2000/svg" xmlns:xlink="http://www.w3.org/1999/xlink" version="1.1" id="Layer_1" x="0px" y="0px" width="50px" height="50px" viewBox="0 0 50 50" enable-background="new 0 0 50 50" xml:space="preserve" fill="#000000">

<path fill="none" stroke="#000000" stroke-width="2" stroke-linecap="round" stroke-linejoin="round" stroke-miterlimit="10" d="  M25.112,1C11.962,1,1.301,10.44,1.301,22.087c0,5.904,2.748,11.237,7.165,15.065c0,6.867-6.172,10.259-7.543,11.452  c6.333,1.704,15.073-2.442,19.185-5.906c1.614,0.306,3.287,0.476,5.004,0.476c13.15,0,23.811-9.442,23.811-21.087  C48.923,10.44,38.262,1,25.112,1z"/>
<polygon fill="none" stroke="#000000" stroke-width="2" stroke-linecap="round" stroke-linejoin="round" stroke-miterlimit="10" points="  24.923,11.84 27.474,18.456 34.555,18.837 29.051,23.308 30.876,30.16 24.923,26.307 18.97,30.16 20.795,23.308 15.291,18.837   22.372,18.456 "/>
</svg>
