<?xml version="1.0" encoding="utf-8"?>
<!-- Generator: Adobe Illustrator 19.2.0, SVG Export Plug-In . SVG Version: 6.00 Build 0)  -->
<svg version="1.1" xmlns="http://www.w3.org/2000/svg" xmlns:xlink="http://www.w3.org/1999/xlink" x="0px" y="0px"
	 viewBox="0 0 330 242" style="enable-background:new 0 0 330 242;" xml:space="preserve">
<style type="text/css">
	.st0{fill:#002155;}
	.st1{fill:#003F70;}
	.st2{fill:#B5C3D9;}
	.st3{fill:#6A88AF;}
	.st4{display:none;}
	.st5{display:inline;fill:#003F70;}
	.st6{display:inline;fill:#B5C3D9;}
	.st7{display:inline;fill:#6A88AF;}
	.st8{fill:#F1F2F2;}
</style>
<g id="Layer_3">
</g>
<g id="Bernie1">
</g>
<g id="Bernie2" class="st4">
</g>
<g id="Ft.">
</g>
<g id="TheTaxPlan">
	<path class="st8" d="M92.3,91.2c-3.3-4.7-8.1-8.3-14.7-10.9c-6.5-2.6-14.6-3.9-24.1-3.9c-2,0-5.6,0.1-10.7,0.2
		c-5.1,0.1-9.8,0.2-14,0.2c-10.7,0-18.6-0.2-23.9-0.5v3.2c3.5,0.2,6,0.6,7.6,1.2c1.6,0.7,2.7,1.9,3.3,3.7c0.6,1.8,0.9,4.7,0.9,8.6
		V171c0,3.9-0.3,6.8-0.9,8.6c-0.6,1.8-1.7,3-3.3,3.7c-1.6,0.7-4.1,1.1-7.6,1.2v3.2c13.5-0.3,21.8-0.5,24.8-0.5
		c6.3,0,15.9,0.2,28.8,0.5v-3.5c-4.9-0.1-8.5-0.4-10.8-1.1c-2.3-0.7-3.9-2-4.7-3.9c-0.9-1.9-1.3-5-1.3-9.2v-27.4H50
		c11.5,0,20.8-1.8,27.8-5.3c7-3.5,12-8,14.9-13.3c2.9-5.3,4.4-10.9,4.4-16.6C97.1,101.2,95.5,95.8,92.3,91.2z M34.2,175.2l-5.2-3.8
		l-5.2,3.8l2-6.1l-5.2-3.8h6.4l2-6.1l2,6.1h6.4l-5.2,3.8L34.2,175.2z M32.2,144.6l2,6.1l-5.2-3.8l-5.2,3.8l2-6.1l-5.2-3.8h6.4l2-6.1
		l2,6.1h6.4L32.2,144.6z M32.2,120l2,6.1l-5.2-3.8l-5.2,3.8l2-6.1l-5.2-3.8h6.4l2-6.1l2,6.1h6.4L32.2,120z M32.2,95.4l2,6.1L29,97.7
		l-5.2,3.8l2-6.1l-5.2-3.8h6.4l2-6.1l2,6.1h6.4L32.2,95.4z M66.2,131.3c-3.2,5.5-9.1,8.2-17.7,8.2h-6.8V92.9c0-3.8,0.2-6.6,0.7-8.5
		c0.5-1.9,1.4-3.2,2.8-3.9c1.4-0.7,3.4-1.1,6.3-1.1c7,0,12,2.4,15,7.2c3,4.8,4.5,12.3,4.5,22.5C71,118.5,69.4,125.9,66.2,131.3z"/>
	<g>
		<path class="st8" d="M135.5,179.9c0.6,1.6,1.7,2.8,3.2,3.5c1.5,0.7,3.4,1,6,1v3.3c-10.9-0.4-17.9-0.6-21.1-0.6
			c-3.6,0-10.9,0.2-21.8,0.6v-3.3c2.5,0,4.5-0.3,5.9-1c1.4-0.7,2.5-1.8,3.2-3.5c0.7-1.6,1-3.9,1-6.8V83.3c0-4.9-0.8-8.4-2.3-10.6
			c-1.5-2.2-4.1-3.3-7.8-3.3v-3.3c3.3,0.3,6.6,0.5,9.8,0.5c9.2,0,16.9-0.7,23-2.2v108.7C134.6,176,134.9,178.3,135.5,179.9z"/>
		<path class="st8" d="M191.9,111c-2.1-2.5-5.3-3.8-9.7-3.8c-2,0-4.1,0.3-6.1,1c-2,0.6-3.7,1.6-5.1,2.9c2.9,1,5.2,2.5,6.8,4.6
			c1.6,2.1,2.5,4.7,2.5,7.8c0,2.2-0.5,4.1-1.6,5.8c-1.1,1.7-2.5,3.1-4.5,4.1c-1.9,1-4.2,1.5-6.7,1.5c-3.4,0-6.1-1.2-8.1-3.5
			c-2-2.3-3-5.2-3-8.7c0-5.4,2.9-9.8,8.8-13.2c6.4-3.5,14.4-5.3,24-5.3c10.8,0,18.4,2.4,23,7.1c2.2,2.2,3.7,4.9,4.5,8.2
			c0.8,3.3,1.2,7.9,1.2,13.8V176c0,2.6,0.2,4.4,0.7,5.4c0.5,1.1,1.3,1.6,2.6,1.6c1.7,0,3.6-0.9,5.8-2.7l1.6,2.7
			c-2.4,2-5,3.5-7.8,4.4c-2.8,0.9-6.2,1.4-10.1,1.4c-5.3,0-9.2-1.2-11.5-3.5c-2.4-2.4-3.5-5.4-3.5-9.2c-2.6,4.3-5.9,7.4-10.1,9.6
			c-4.2,2.1-8.6,3.2-13.3,3.2c-6,0-10.8-1.6-14.4-4.7c-3.6-3.2-5.4-7.5-5.4-13.2c0-5.5,1.8-10,5.4-13.6c3.6-3.6,9.1-6.8,16.7-9.5
			c0.8-0.3,3.5-1.3,8-3c4.5-1.7,7.8-3.5,9.8-5.3c2-1.8,3-3.8,3-5.9v-12.2C195,116.9,193.9,113.5,191.9,111z M191.7,143.5
			c-1.5,1.2-3.7,2.7-6.5,4.4c-3.3,2.3-5.9,4.9-7.8,7.8c-1.9,2.9-2.8,6.5-2.8,10.8c0,4.1,0.9,7.2,2.7,9.2c1.8,2,4.2,3,7.1,3
			c4.2,0,7.7-2.2,10.7-6.5V140C194.3,141.1,193.2,142.3,191.7,143.5z"/>
		<path class="st8" d="M291.5,104.1c4.3,0,7.8,0.5,10.6,1.5c2.7,1,5,2.5,6.7,4.5c1.7,2,3,4.6,3.8,7.8c0.8,3.2,1.2,7.4,1.2,12.8v42.3
			c0,2.9,0.3,5.2,1,6.8c0.7,1.6,1.7,2.8,3.2,3.5c1.4,0.7,3.4,1,5.9,1v3.3c-10.5-0.4-17.4-0.6-20.8-0.6c-3.2,0-10.1,0.2-20.5,0.6
			v-3.3c2.2,0,3.8-0.3,5.1-1c1.2-0.7,2.1-1.8,2.7-3.5c0.5-1.6,0.8-3.9,0.8-6.8v-49c0-4.3-0.7-7.6-2.1-9.8c-1.4-2.2-4-3.3-7.6-3.3
			c-2.9,0-5.5,0.8-7.9,2.4c-2.4,1.6-4.3,3.8-5.6,6.6c-1.4,2.8-2.1,5.9-2.1,9.3v43.8c0,2.9,0.3,5.2,0.8,6.8c0.6,1.6,1.5,2.8,2.7,3.5
			c1.2,0.7,2.9,1,5,1v3.3c-9.6-0.4-16.1-0.6-19.5-0.6c-3.2,0-10.5,0.2-21.8,0.6v-3.3c2.5,0,4.5-0.3,6-1c1.5-0.7,2.5-1.8,3.2-3.5
			c0.6-1.6,1-3.9,1-6.8v-49.6c0-4.9-0.7-8.4-2.2-10.6c-1.5-2.2-4.1-3.3-7.8-3.3v-3.3c3.3,0.3,6.6,0.5,9.8,0.5c9.3,0,16.9-0.7,23-2.2
			v14.1C270.5,109,279.1,104.1,291.5,104.1z"/>
	</g>
	<g>
		<path class="st8" d="M143,16.5c0-4.1-0.3-8.6-0.8-13.5c5.8,0.2,15.8,0.3,29.8,0.3c13.9,0,23.8-0.1,29.6-0.3
			c-0.5,5-0.7,9.5-0.7,13.5c0,3.5,0.1,6.4,0.3,8.7h-2.4c-0.5-5.5-1.2-9.5-2.1-12.1c-0.8-2.6-2.3-4.5-4.4-5.8
			c-2.1-1.2-5.3-1.8-9.7-1.8h-5.7v60c0,2.9,0.3,5.1,0.8,6.4c0.5,1.4,1.5,2.3,3,2.8c1.4,0.5,3.7,0.8,6.8,0.9v2.1
			c-3.7-0.2-8.9-0.3-15.5-0.3c-7,0-12.2,0.1-15.6,0.3v-2.1c3.1-0.1,5.4-0.4,6.8-0.9c1.4-0.5,2.4-1.4,3-2.8c0.5-1.4,0.8-3.5,0.8-6.4
			v-60h-5.7c-4.4,0-7.6,0.6-9.7,1.8c-2.1,1.2-3.6,3.1-4.4,5.8c-0.8,2.6-1.5,6.7-2.1,12.1h-2.4C142.9,22.9,143,20,143,16.5z"/>
		<path class="st8" d="M234.4,26.2c-1.7-1.5-4.1-2.2-7.2-2.2c-5,0-8.5,1.3-10.5,3.8c1.4,0.3,2.6,1.1,3.5,2.2
			c0.9,1.2,1.4,2.5,1.4,4.2c0,1.8-0.6,3.2-1.7,4.2c-1.1,1-2.6,1.5-4.5,1.5c-1.8,0-3.2-0.6-4.2-1.8c-1-1.2-1.5-2.8-1.5-4.7
			c0-2.7,1.6-5.3,4.9-7.5c1.7-1.1,3.8-2.1,6.4-2.8c2.5-0.8,5.3-1.1,8.4-1.1c2.9,0,5.4,0.4,7.6,1.1c2.2,0.7,3.9,1.7,5.1,2.9
			c1.6,1.6,2.7,3.6,3.3,5.7c0.6,2.2,0.9,5.2,0.9,9v29.3c0,1.8,0.2,3,0.7,3.8c0.5,0.8,1.3,1.2,2.5,1.2c0.9,0,1.6-0.2,2.4-0.6
			c0.7-0.4,1.5-0.9,2.4-1.6l1.2,1.8c-1.2,0.9-2.3,1.6-3.1,2.2c-0.8,0.5-1.8,0.9-2.8,1.2c-1.1,0.3-2.3,0.5-3.7,0.5
			c-3.4,0-5.8-0.8-7.1-2.5c-1.3-1.7-2-4-2-6.8c-2.1,3.4-4.5,5.8-7.4,7.2c-2.9,1.4-5.8,2.1-8.8,2.1c-2.4,0-4.7-0.4-6.7-1.3
			c-2-0.8-3.6-2.1-4.9-3.9c-1.2-1.8-1.8-4-1.8-6.6c0-2.7,0.7-5,2-6.8c1.3-1.9,3.1-3.5,5.5-5c2.4-1.4,5.5-3,9.5-4.7
			c0.7-0.3,2.4-1,5-2.1c2.7-1.1,4.6-2.2,5.8-3.3c1.2-1.1,1.8-2.3,1.8-3.6v-6.5C236.9,30.5,236.1,27.7,234.4,26.2z M234.4,47.7
			c-1.2,0.7-3.7,2-7.5,3.8c-2,1-3.7,1.9-5.1,3c-1.4,1-2.6,2.4-3.6,4.1c-1,1.7-1.5,3.8-1.5,6.3c0,3.1,0.8,5.4,2.3,6.9
			c1.5,1.6,3.6,2.3,6.1,2.3c4.7,0,8.6-2.7,11.9-8V45.5C236.4,46.2,235.6,47,234.4,47.7z"/>
		<path class="st8" d="M305.7,74c0.9,0.7,2,1.2,3.3,1.5v2.2c-3.6-0.3-6.1-0.4-7.5-0.4c-2.4,0-6.6,0.1-12.5,0.4v-2.2
			c1.1,0,2.1-0.2,2.9-0.7c0.8-0.4,1.2-1,1.2-1.7c0-0.3-0.2-0.8-0.5-1.2l-12-17.5l-7.7,10c-2,2.5-2.9,4.6-2.9,6.3
			c0,2.9,2.6,4.5,7.8,4.8v2.1c-3.7-0.2-7.7-0.3-12-0.3c-3.1,0-5.8,0.1-8,0.3v-2.1c1.4-0.2,2.8-0.8,4.2-1.9c1.4-1.1,3.1-2.9,5-5.5
			l12.2-16l-14.7-21.3c-1-1.4-1.8-2.5-2.4-3.2c-0.7-0.7-1.3-1.2-1.9-1.5c-0.6-0.3-1.3-0.5-2.2-0.6v-2.2c3.7,0.3,6.2,0.4,7.5,0.4
			c2.4,0,6.5-0.1,12.4-0.4v2.2c-1.1,0-2.1,0.2-2.9,0.6c-0.8,0.4-1.2,1-1.2,1.7c0,0.4,0.1,0.8,0.4,1.2l11.3,16.4l7.3-10.2
			c2.1-3,3.2-5.2,3.2-6.6c0-1-0.5-1.8-1.4-2.3c-1-0.5-2.5-0.9-4.6-1v-2.1c3.6,0.2,6.6,0.3,8.9,0.3c3.1,0,5.7-0.1,8-0.3v2.1
			c-2.9,0.3-5.9,2.8-9.3,7.4L287,47.6l15.5,22.6C303.8,72,304.8,73.2,305.7,74z"/>
	</g>
	<g>
		<path class="st8" d="M16.9,14c0-2.5-0.2-5.2-0.5-8.2C20,6,26.1,6,34.6,6C43,6,49,6,52.6,5.8c-0.3,3.1-0.4,5.8-0.4,8.2
			c0,2.2,0.1,3.9,0.2,5.3h-1.5c-0.3-3.3-0.8-5.8-1.3-7.4c-0.5-1.6-1.4-2.8-2.7-3.5c-1.3-0.7-3.3-1.1-5.9-1.1h-3.5v36.5
			c0,1.8,0.2,3.1,0.5,3.9c0.3,0.8,0.9,1.4,1.8,1.7c0.9,0.3,2.3,0.5,4.2,0.6v1.3c-2.3-0.1-5.4-0.2-9.4-0.2c-4.3,0-7.4,0.1-9.5,0.2V50
			c1.9-0.1,3.3-0.3,4.2-0.6c0.9-0.3,1.5-0.9,1.8-1.7c0.3-0.8,0.5-2.1,0.5-3.9V7.3h-3.5c-2.7,0-4.6,0.4-5.9,1.1
			c-1.3,0.7-2.2,1.9-2.7,3.5c-0.5,1.6-0.9,4.1-1.3,7.4h-1.5C16.9,17.9,16.9,16.2,16.9,14z"/>
		<path class="st8" d="M70.5,19.1c1.9-1.2,4.1-1.8,6.4-1.8c3,0,5.3,0.8,6.8,2.4c0.8,0.9,1.4,2,1.7,3.2c0.3,1.3,0.5,3,0.5,5.2v17.1
			c0,1.2,0.2,2.1,0.5,2.8c0.3,0.7,0.8,1.1,1.5,1.4c0.7,0.3,1.7,0.4,2.9,0.4v1.3c-4-0.2-6.6-0.3-7.7-0.3c-1.2,0-3.6,0.1-7.2,0.3v-1.3
			c1.1,0,1.9-0.1,2.5-0.4c0.6-0.3,1-0.7,1.3-1.4c0.3-0.7,0.4-1.6,0.4-2.8V26.8c0-1.5-0.1-2.8-0.4-3.9c-0.3-1-0.8-1.9-1.5-2.5
			c-0.8-0.6-1.9-1-3.3-1c-1.7,0-3.3,0.5-4.7,1.5s-2.4,2.4-3.2,4.1c-0.8,1.8-1.1,3.8-1.1,6v14.3c0,1.2,0.1,2.1,0.4,2.8
			c0.3,0.7,0.7,1.1,1.3,1.4c0.6,0.3,1.4,0.4,2.5,0.4v1.3c-3.6-0.2-6-0.3-7.2-0.3c-1.2,0-3.8,0.1-7.7,0.3v-1.3c1.2,0,2.2-0.1,2.9-0.4
			c0.7-0.3,1.2-0.7,1.5-1.4c0.3-0.7,0.5-1.6,0.5-2.8V8.7c0-2-0.4-3.4-1.1-4.3c-0.7-0.9-2-1.3-3.8-1.3V1.7c1.4,0.1,2.7,0.2,4,0.2
			c2.8,0,5-0.3,6.7-0.9v24C67.1,22.3,68.6,20.3,70.5,19.1z"/>
		<path class="st8" d="M119.1,47.8c-1.1,1.3-2.5,2.4-4.1,3.2c-1.6,0.8-3.5,1.2-5.5,1.2c-3.1,0-5.7-0.7-7.9-2.1
			c-2.2-1.4-3.9-3.3-5.1-5.9c-1.2-2.5-1.8-5.4-1.8-8.7c0-3.7,0.6-6.9,1.8-9.7c1.2-2.7,2.9-4.8,5.1-6.3c2.2-1.5,4.7-2.2,7.7-2.2
			c3.8,0,6.8,1.2,8.9,3.5c2.1,2.3,3.1,5.9,3.1,10.6h-20.1c-0.1,1.1-0.2,2.5-0.2,4.1c0,2.8,0.5,5.3,1.4,7.4c0.9,2.1,2.1,3.7,3.7,4.9
			c1.5,1.1,3.1,1.7,4.8,1.7c4.3,0,7.4-2.1,9.4-6.4l1.3,0.5C121,45.1,120.2,46.5,119.1,47.8z M114.6,24.3c-0.4-1.8-1.1-3.2-2.1-4.2
			c-0.9-1-2.1-1.6-3.5-1.6c-1.3,0-2.5,0.4-3.6,1.3c-1.1,0.8-2,2.1-2.8,3.9c-0.8,1.7-1.2,3.9-1.5,6.5h14
			C115.2,28.1,115,26.1,114.6,24.3z"/>
	</g>
</g>
<g id="Layer_7">
</g>
<g id="Layer_6">
	<path class="st8" d="M1.9,204v35.1h325V204H1.9z M281.9,231.6h-2.1c-0.3,0-0.4-0.2-0.5-0.5l-3.4-10.3c-0.1-0.2-0.1-0.5-0.2-0.7
		c-0.1-0.2-0.1-0.5-0.2-0.7c0,0.2-0.1,0.5-0.1,0.7c-0.1,0.2-0.1,0.5-0.2,0.7l-3.4,10.3c-0.1,0.3-0.3,0.5-0.6,0.5h-2l-4.9-15.2h2.1
		c0.2,0,0.4,0.1,0.5,0.2c0.1,0.1,0.2,0.2,0.3,0.4l2.9,9.8c0.1,0.4,0.2,0.7,0.2,1c0.1,0.3,0.1,0.7,0.2,1c0.1-0.3,0.2-0.7,0.3-1
		c0.1-0.3,0.2-0.7,0.3-1l3.2-9.8c0-0.1,0.1-0.3,0.3-0.4c0.1-0.1,0.3-0.2,0.5-0.2h1.2c0.2,0,0.4,0.1,0.5,0.2c0.1,0.1,0.2,0.2,0.3,0.4
		l3.1,9.8c0.1,0.3,0.2,0.7,0.3,1c0.1,0.3,0.2,0.7,0.2,1c0.1-0.3,0.1-0.7,0.2-1c0.1-0.4,0.2-0.7,0.3-1l3-9.8c0-0.2,0.1-0.3,0.3-0.4
		c0.1-0.1,0.3-0.2,0.5-0.2h2L281.9,231.6z M292.1,231.6h-2.7v-15.2h2.7V231.6z M292.6,212.4c-0.1,0.2-0.2,0.4-0.4,0.6
		c-0.2,0.2-0.4,0.3-0.6,0.4c-0.2,0.1-0.5,0.1-0.7,0.1c-0.3,0-0.5,0-0.7-0.1c-0.2-0.1-0.4-0.2-0.6-0.4s-0.3-0.4-0.4-0.6
		c-0.1-0.2-0.1-0.5-0.1-0.7c0-0.3,0.1-0.5,0.1-0.7c0.1-0.2,0.2-0.4,0.4-0.6c0.2-0.2,0.4-0.3,0.6-0.4c0.2-0.1,0.5-0.2,0.7-0.2
		c0.3,0,0.5,0.1,0.7,0.2c0.2,0.1,0.4,0.2,0.6,0.4c0.2,0.2,0.3,0.4,0.4,0.6c0.1,0.2,0.2,0.5,0.2,0.7
		C292.7,212,292.7,212.2,292.6,212.4z M303.4,231.5c-0.6,0.2-1.3,0.4-2,0.4c-1.2,0-2.1-0.3-2.8-1c-0.6-0.7-1-1.6-1-2.9v-9.3h-1.8
		c-0.2,0-0.3,0-0.4-0.1c-0.1-0.1-0.2-0.2-0.2-0.4V217l2.5-0.3l0.6-4.7c0-0.2,0.1-0.3,0.2-0.4c0.1-0.1,0.2-0.1,0.4-0.1h1.3v5.2h4.3
		v1.9h-4.3v9.1c0,0.6,0.2,1.1,0.5,1.4c0.3,0.3,0.7,0.5,1.2,0.5c0.3,0,0.5,0,0.7-0.1c0.2-0.1,0.4-0.2,0.5-0.2
		c0.2-0.1,0.3-0.2,0.4-0.2c0.1-0.1,0.2-0.1,0.3-0.1c0.1,0,0.3,0.1,0.4,0.3l0.8,1.3C304.6,230.9,304.1,231.3,303.4,231.5z
		 M320.6,231.6H318V222c0-1.1-0.3-2-0.8-2.7c-0.5-0.6-1.3-1-2.4-1c-0.8,0-1.5,0.2-2.2,0.6c-0.7,0.4-1.3,0.9-1.9,1.5v11.2H308v-22.1
		h2.7v8.9c0.6-0.7,1.4-1.2,2.2-1.7c0.8-0.4,1.7-0.6,2.7-0.6c0.8,0,1.6,0.1,2.2,0.4c0.6,0.3,1.2,0.7,1.6,1.2c0.4,0.5,0.7,1.1,1,1.8
		c0.2,0.7,0.3,1.5,0.3,2.4V231.6z"/>
</g>
<g id="bernie_x5F_export">
</g>
</svg>
