<?xml version="1.0" encoding="UTF-8" standalone="no"?>
<svg width="620px" height="272px" viewBox="0 0 620 272" version="1.1" xmlns="http://www.w3.org/2000/svg" xmlns:xlink="http://www.w3.org/1999/xlink" xmlns:sketch="http://www.bohemiancoding.com/sketch/ns">
    <!-- Generator: Sketch 3.5.2 (25235) - http://www.bohemiancoding.com/sketch -->
    <title>Artboard</title>
    <desc>Created with Sketch.</desc>
    <defs></defs>
    <g id="Page-1" stroke="none" stroke-width="1" fill="none" fill-rule="evenodd" sketch:type="MSPage">
        <g id="Artboard" sketch:type="MSArtboardGroup">
            <g id="optimised_3" sketch:type="MSLayerGroup" transform="translate(3.000000, 2.000000)">
                <path d="M198.504,211.718 L194.212,246.808 C193.748,250.694 191.08,251.332 186.73,251.506 L186.44,254 L206.624,254 L206.914,251.506 C202.448,251.332 200.534,250.81 200.534,247.678 C200.534,247.388 200.592,246.75 200.708,245.88 L204.884,211.718 L209.524,211.718 C215.904,211.718 216.6,214.154 219.036,221.114 L221.124,221.114 L221.646,208.76 L182.438,208.76 L179.944,221.114 L182.264,221.114 C186.44,214.154 187.716,211.718 194.908,211.718 L198.504,211.718 Z M226.982,250.694 C224.604,250.694 223.966,248.026 223.966,244.14 C224.024,235.382 229.07,225.58 236.9,225.58 C238.93,225.58 240.264,226.334 241.076,227.958 C240.786,231.67 238.176,239.036 234.58,244.198 C231.332,248.838 229.186,250.694 226.982,250.694 L226.982,250.694 Z M237.77,250.23 C237.77,252.956 239.22,254.58 242.236,254.58 C245.832,254.58 248.964,252.144 251.632,247.794 L249.776,246.518 C247.746,249.07 246.122,250.636 244.788,250.636 C243.918,250.636 243.454,250.114 243.454,249.012 C243.454,245.822 245.136,235.904 246.934,228.712 L248.964,222.216 L246.934,222.216 L243.164,225.87 C242.352,224.13 240.38,222.68 237.016,222.68 C227.62,222.68 218.282,233.352 218.282,245.416 C218.282,250.694 220.37,254.58 225.068,254.58 C228.316,254.58 231.796,252.376 235.856,246.518 C238.118,243.27 238.814,241.24 239.8,238.978 L240.032,238.978 C239.278,242.4 237.77,248.084 237.77,250.23 L237.77,250.23 Z M269.496,247.272 C270.598,252.55 271.758,254.58 275.122,254.58 C278.776,254.58 281.676,252.144 284.518,247.794 L282.778,246.518 C280.632,249.07 279.066,250.636 277.616,250.636 C275.992,250.636 275.354,249.592 274.426,245.126 L272.628,236.542 C275.528,230.684 278.08,227.03 280.11,227.03 C281.618,227.03 282.72,227.842 283.184,230.452 L284.692,230.452 C285.678,229.872 286.954,228.828 286.954,226.914 C286.954,223.956 284.924,222.68 282.488,222.68 C277.906,222.68 274.832,227.03 271.932,232.888 L271.352,230.104 C270.25,224.768 269.206,222.68 265.9,222.68 C263.058,222.68 259.81,224.13 256.504,229.872 L258.36,231.148 C260.1,228.77 261.55,226.914 263.116,226.914 C264.74,226.914 265.436,228.016 266.48,233.062 L267.756,239.094 C264.508,245.88 261.434,250.23 259.23,250.23 C257.722,250.23 256.62,249.418 256.156,246.808 L254.648,246.808 C253.662,247.388 252.386,248.432 252.386,250.346 C252.386,253.304 254.416,254.58 256.852,254.58 C261.26,254.58 264.856,250.23 268.51,242.69 L269.496,247.272 Z M315.548,235.092 L325.35,235.092 C335.558,235.092 341.996,229.35 341.996,220.766 C341.996,213.4 337.008,208.76 325.35,208.76 L305.688,208.76 L305.398,211.254 C309.342,211.428 311.546,211.95 311.546,215.024 C311.546,215.314 311.488,215.952 311.43,216.416 L307.718,246.808 C307.254,250.694 304.76,251.332 300.468,251.506 L300.178,254 L321.116,254 L321.406,251.506 C315.606,251.216 314.156,250.056 314.156,247.62 C314.156,246.866 314.214,246.112 314.388,244.604 L315.548,235.092 Z M318.39,211.95 L324.48,211.95 C331.788,211.95 334.978,215.198 334.978,221.172 C334.978,228.77 330.048,231.902 322.972,231.902 L315.954,231.902 L318.39,211.95 Z M344.606,250.23 C344.606,252.956 346.114,254.58 349.13,254.58 C352.726,254.58 355.858,252.144 358.526,247.794 L356.67,246.518 C354.64,249.07 353.016,250.636 351.682,250.636 C350.812,250.636 350.348,250.114 350.348,249.012 C350.348,242.864 355.858,221.52 357.598,207.02 L355.742,207.02 L347.042,209.746 L346.752,210.906 L350.928,213.226 C350.058,222.332 344.606,244.14 344.606,250.23 L344.606,250.23 Z M371.17,250.694 C368.792,250.694 368.154,248.026 368.154,244.14 C368.212,235.382 373.258,225.58 381.088,225.58 C383.118,225.58 384.452,226.334 385.264,227.958 C384.974,231.67 382.364,239.036 378.768,244.198 C375.52,248.838 373.374,250.694 371.17,250.694 L371.17,250.694 Z M381.958,250.23 C381.958,252.956 383.408,254.58 386.424,254.58 C390.02,254.58 393.152,252.144 395.82,247.794 L393.964,246.518 C391.934,249.07 390.31,250.636 388.976,250.636 C388.106,250.636 387.642,250.114 387.642,249.012 C387.642,245.822 389.324,235.904 391.122,228.712 L393.152,222.216 L391.122,222.216 L387.352,225.87 C386.54,224.13 384.568,222.68 381.204,222.68 C371.808,222.68 362.47,233.352 362.47,245.416 C362.47,250.694 364.558,254.58 369.256,254.58 C372.504,254.58 375.984,252.376 380.044,246.518 C382.306,243.27 383.002,241.24 383.988,238.978 L384.22,238.978 C383.466,242.4 381.958,248.084 381.958,250.23 L381.958,250.23 Z M421.862,250.23 C421.862,252.956 423.544,254.58 426.56,254.58 C430.156,254.58 433.288,252.144 435.956,247.794 L434.1,246.518 C432.07,249.07 430.446,250.636 429.112,250.636 C428.242,250.636 427.778,250.114 427.778,249.012 C427.778,245.532 432.012,232.83 432.012,227.494 C432.012,224.42 430.852,222.68 427.836,222.68 C420.064,222.68 413.626,233.874 409.044,244.72 L408.812,244.72 L412.06,231.496 C412.698,229.002 412.872,227.61 412.872,226.798 C412.872,224.42 411.886,222.68 408.638,222.68 C405.448,222.68 401.62,224.42 398.604,230.162 L400.518,231.438 C402.2,229.06 404.172,226.914 405.738,226.914 C406.84,226.914 407.13,227.436 407.13,228.19 C407.13,228.596 407.014,229.582 406.898,230.278 L402.664,254 L408.29,254 C413.22,238.34 421.166,226.856 424.878,226.856 C425.98,226.856 426.096,227.842 426.096,228.654 C426.096,233.062 421.862,246.402 421.862,250.23 L421.862,250.23 Z" id="Tax-Plan" fill="#087ED7" sketch:type="MSShapeGroup"></path>
                <path d="M614,187.103 C614,187.103 611.609,186.72 607.593,185.764 C605.585,185.381 602.907,184.712 599.848,184.042 C596.787,183.373 593.154,182.703 589.138,182.321 C581.106,180.982 571.352,179.643 560.355,178.592 C549.262,177.253 536.544,176.201 522.87,175.531 C509.1,174.862 494.374,174.192 478.691,173.81 C470.946,173.81 462.627,173.427 454.593,173.81 C446.178,173.81 437.859,173.81 429.444,174.192 C412.328,174.575 394.637,175.245 376.564,176.201 C358.491,177.253 340.418,178.209 321.961,179.548 C312.877,180.217 303.888,180.887 294.517,181.939 C285.433,182.608 276.444,183.661 267.359,184.617 C262.96,184.999 258.275,185.669 253.971,185.956 C249.573,186.338 245.269,187.008 240.584,187.294 C236.185,187.964 231.882,188.347 227.483,188.633 C223.084,189.303 218.781,189.685 214.382,189.972 C197.265,191.694 180.53,193.033 164.465,193.319 C156.433,193.702 148.687,193.989 141.324,193.989 C133.961,193.989 126.598,193.989 119.521,193.606 C105.751,193.224 93.033,192.267 81.654,191.215 C70.275,189.876 60.521,188.155 52.488,186.147 C48.471,185.095 45.125,184.139 42.065,183.087 C39.005,182.035 36.328,181.079 34.319,180.027 C32.311,178.974 30.59,178.305 29.92,177.636 C28.868,176.966 28.582,176.583 28.582,176.583 C28.582,176.583 29.251,176.966 30.303,177.253 C31.355,177.636 32.98,178.305 34.989,178.592 C36.997,179.261 39.675,179.644 42.735,180.313 C45.795,180.983 49.429,181.365 53.445,181.652 C57.461,182.035 61.86,182.322 66.546,182.322 C71.232,182.322 76.587,182.704 81.942,182.322 C93.035,182.322 105.753,181.652 119.14,180.983 C125.834,180.6 133.197,179.931 140.56,179.644 C147.923,178.974 155.669,178.305 163.319,177.636 C179.097,176.297 195.449,174.575 212.566,172.568 C221.268,171.516 229.97,170.559 238.671,169.507 C247.372,168.455 256.457,167.499 265.446,166.447 C274.53,165.395 283.519,164.725 292.89,164.056 C301.974,163.386 311.346,162.717 320.335,162.048 C338.79,160.709 357.15,160.039 375.224,159.657 C393.297,159.274 411.083,159.274 428.487,159.657 C437.189,160.039 445.604,160.039 453.924,160.709 C462.339,161.091 470.371,161.761 478.404,162.048 C494.181,163.1 509.195,164.725 522.965,166.446 C536.736,168.454 549.453,170.463 560.45,172.47 C571.543,174.861 581.201,176.868 588.946,179.163 C592.963,180.215 596.309,181.172 599.369,182.224 C602.43,183.276 605.107,183.945 607.115,184.615 C611.609,186.433 614,187.103 614,187.103 L614,187.103 Z" id="Shape" fill="#EA504E" sketch:type="MSShapeGroup"></path>
                <path d="M144.577,109.741 C144.577,92.338 134.824,82.297 114.455,79.237 C131.572,75.508 139.604,66.519 139.604,51.793 C139.604,29.99 125.834,21.002 91.696,21.002 L36.521,21.002 L36.521,34.772 L45.893,34.772 C48.57,34.772 49.622,36.111 49.622,39.84 L49.622,124.181 C49.622,128.198 48.57,129.536 45.893,129.536 L36.521,129.536 L36.521,143.306 L91.41,143.306 C128.512,143.21 144.577,133.17 144.577,109.741 L144.577,109.741 Z M75.631,34.771 L91.027,34.771 C106.805,34.771 112.447,39.839 112.447,54.852 C112.447,68.91 105.084,74.647 89.688,74.647 L75.631,74.647 L75.631,34.771 L75.631,34.771 Z M75.631,86.696 L94.087,86.696 C110.152,86.696 117.228,92.72 117.228,108.498 C117.228,123.894 110.534,129.632 92.748,129.632 L75.631,129.632 L75.631,86.696 L75.631,86.696 Z" id="Shape" fill="#087ED7" sketch:type="MSShapeGroup"></path>
                <path d="M453.254,38.788 L465.398,29.417 L477.447,38.788 L472.762,24.062 L484.811,14.978 L470.084,14.978 L465.398,0.251 L460.617,14.978 L445.604,14.978 L457.653,24.062 L453.254,38.788 Z" id="Shape" fill="#087ED7" sketch:type="MSShapeGroup"></path>
                <g id="XMLID_1_" transform="translate(0.000000, 42.000000)" sketch:type="MSShapeGroup">
                    <g id="Group">
                        <path d="M579.19,114.6 C583.5,115.941 585.03,117.281 585.03,117.281 C585.03,117.281 583.019,116.991 578.62,115.941 C576.61,115.27 573.93,114.88 570.87,114.22 C567.53,113.55 564.18,112.88 560.16,112.21 C552.13,110.87 542.47,109.53 531.38,108.19 C520.29,106.849 507.95,105.9 494.18,104.839 C480.51,103.889 465.691,103.219 450,102.839 C434.32,102.449 417.59,102.449 400.47,102.839 C383.45,103.219 365.66,103.499 347.59,104.559 C329.52,105.23 311.06,106.57 292.99,107.9 C274.91,109.62 256.84,111.25 238.77,112.969 C234.46,113.259 229.78,113.929 225.38,114.309 C220.69,114.599 216.39,115.269 211.99,115.65 C203.29,116.7 194.59,117.66 185.89,118.71 C168.87,120.43 152.13,121.77 136.35,122.44 C120.58,123.11 105.56,123.11 91.79,123.11 C77.73,122.82 65.02,122.15 53.92,121.099 C42.93,120.049 33.17,118.709 25.14,116.7 C21.12,115.75 17.78,114.69 14.72,114.019 C11.66,112.969 8.98,112.019 6.97,110.959 C4.68,109.909 3.34,109.239 2.29,108.569 C3.24,108.959 4.96,109.619 6.97,110.289 C11.37,111.629 17.4,112.969 25.43,113.639 C29.44,114.019 33.84,114.309 38.53,114.69 C43.21,115.08 48.19,115.08 53.92,115.08 C59.66,115.08 65.3,115.08 71.71,114.69 C78.12,114.69 84.81,114.41 91.5,114.019 C105.18,113.349 119.91,112.299 135.68,110.959 C143.72,110.289 151.75,109.619 159.78,108.569 C168.2,107.899 176.52,106.949 184.93,105.899 C188.28,105.229 191.62,104.939 194.97,104.558 C163.22,103.218 147.45,82.178 147.45,53.018 C147.45,22.218 166.86,1.468 195.35,1.468 C224.52,1.468 240.58,20.498 240.58,53.018 L240.58,58.079 L173.65,58.079 C173.93,76.539 182.64,88.589 199.75,88.589 C212.85,88.589 220.5,81.61 224.9,69.849 L239.34,76.539 C235.33,88.299 227.58,97.959 214.19,102.359 C221.84,101.399 229.59,100.348 237.62,99.678 C239.34,99.388 241.35,99.388 243.36,99.008 L243.36,86.578 L251.77,86.578 C254.07,86.578 255.12,85.908 255.12,81.218 L255.12,24.61 C255.12,19.929 254.16,18.589 251.77,18.589 L242.69,18.589 L242.69,3.48 L258.08,3.48 C267.46,3.48 275.77,2.53 280.17,1.469 L280.17,22.889 C284.57,7.209 294.23,0.799 305.32,0.799 C319,0.799 327.41,10.169 327.41,24.61 C327.41,37.33 320.05,45.75 309.34,45.75 C302.65,45.75 296.62,39.72 296.62,32.36 C296.62,27 299.97,21.36 305.71,19.639 C304.37,18.299 301.98,17.629 299.3,17.629 C286.96,17.629 280.56,29.969 280.56,50.429 L280.56,81.219 C280.56,85.909 281.89,86.579 283.9,86.579 L292.99,86.579 L292.99,94.609 C304.65,93.939 316.7,93.268 328.46,92.888 L328.46,86.479 L336.88,86.479 C339.17,86.479 340.231,85.808 340.231,81.128 L340.231,24.518 C340.231,19.829 339.27,18.489 336.88,18.489 L330.85,18.489 C330.18,14.479 326.84,5.779 321.77,3.388 L343.191,3.388 C352.27,3.388 360.981,2.428 364.991,1.378 L364.991,20.788 C370.731,7.398 381.441,0.708 396.171,0.708 C415.581,0.708 426.001,12.758 426.001,37.238 L426.001,80.748 C426.001,85.428 427.341,86.098 429.351,86.098 L437.761,86.098 L437.761,92.788 L440.822,92.788 L440.822,86.098 L449.242,86.098 C451.252,86.098 452.302,85.149 452.302,80.748 L452.302,26.138 C452.302,19.828 451.632,18.109 448.282,18.109 L440.922,18.109 L440.922,3 L456.032,3 C465.402,3 473.721,2.05 478.122,1 L478.122,80.65 C478.122,84.95 479.172,86.009 481.182,86.009 L489.212,86.009 L489.212,96.719 C491.222,96.999 493.233,96.999 495.233,97.379 C504.892,98.719 514.262,100.059 522.682,101.4 C500.592,95.089 489.502,76.349 489.502,51.87 C489.502,21.08 508.912,0.33 537.402,0.33 C566.572,0.33 582.631,19.36 582.631,51.87 L582.631,56.94 L515.7,56.94 C515.98,75.389 524.69,87.44 541.8,87.44 C554.901,87.44 562.55,80.46 566.95,68.7 L581.389,75.389 C576.039,91.07 563.7,103.499 539.889,103.499 C537.879,103.499 535.869,103.119 533.869,103.119 C544.289,105.129 553.659,107.139 561.018,109.149 C565.039,110.199 568.388,111.159 571.449,112.209 C574.51,113.26 577.18,113.93 579.19,114.6 L579.19,114.6 Z M515.22,43.64 L556.72,43.64 C556.43,23.951 550.7,16.201 537.31,16.201 C523.92,16.2 516.56,24.23 515.22,43.64 L515.22,43.64 Z M401.14,80.84 L401.14,37.62 C401.14,23.95 396.451,18.21 386.031,18.21 C373.31,18.21 365.951,28.54 365.951,50.34 L365.951,80.84 C365.951,85.53 367.291,86.2 369.301,86.2 L376.661,86.2 L376.661,91.55 C381.341,91.17 386.031,91.17 390.431,91.55 L390.431,86.2 L397.791,86.2 C400.09,86.2 401.14,85.53 401.14,80.84 L401.14,80.84 Z M174.12,43.64 L215.63,43.64 C215.34,23.951 209.6,16.201 196.21,16.201 C182.83,16.2 175.46,24.23 174.12,43.64 L174.12,43.64 Z" id="Shape" fill="#087ED7"></path>
                        <path d="M0.95,107.52 C0.95,107.52 1.62,107.52 2.29,108.571 C1.62,107.9 0.95,107.52 0.95,107.52 L0.95,107.52 Z" id="Shape" fill="#000000"></path>
                    </g>
                </g>
            </g>
        </g>
    </g>
</svg>