<?xml version="1.0" encoding="UTF-8" standalone="no"?>
<svg width="620px" height="272px" viewBox="0 0 620 272" version="1.1" xmlns="http://www.w3.org/2000/svg" xmlns:xlink="http://www.w3.org/1999/xlink" xmlns:sketch="http://www.bohemiancoding.com/sketch/ns">
    <!-- Generator: Sketch 3.5.2 (25235) - http://www.bohemiancoding.com/sketch -->
    <title>Artboard</title>
    <desc>Created with Sketch.</desc>
    <defs></defs>
    <g id="Page-1" stroke="none" stroke-width="1" fill="none" fill-rule="evenodd" sketch:type="MSPage">
        <g id="Artboard" sketch:type="MSArtboardGroup">
            <g id="optimised_3" sketch:type="MSLayerGroup" transform="translate(3.000000, 2.000000)">
                <path d="M140.56,209.698 L136.268,244.788 C135.804,248.674 133.136,249.312 128.786,249.486 L128.496,251.98 L148.68,251.98 L148.97,249.486 C144.504,249.312 142.59,248.79 142.59,245.658 C142.59,245.368 142.648,244.73 142.764,243.86 L146.94,209.698 L151.58,209.698 C157.96,209.698 158.656,212.134 161.092,219.094 L163.18,219.094 L163.702,206.74 L124.494,206.74 L122,219.094 L124.32,219.094 C128.496,212.134 129.772,209.698 136.964,209.698 L140.56,209.698 Z M169.038,248.674 C166.66,248.674 166.022,246.006 166.022,242.12 C166.08,233.362 171.126,223.56 178.956,223.56 C180.986,223.56 182.32,224.314 183.132,225.938 C182.842,229.65 180.232,237.016 176.636,242.178 C173.388,246.818 171.242,248.674 169.038,248.674 L169.038,248.674 Z M179.826,248.21 C179.826,250.936 181.276,252.56 184.292,252.56 C187.888,252.56 191.02,250.124 193.688,245.774 L191.832,244.498 C189.802,247.05 188.178,248.616 186.844,248.616 C185.974,248.616 185.51,248.094 185.51,246.992 C185.51,243.802 187.192,233.884 188.99,226.692 L191.02,220.196 L188.99,220.196 L185.22,223.85 C184.408,222.11 182.436,220.66 179.072,220.66 C169.676,220.66 160.338,231.332 160.338,243.396 C160.338,248.674 162.426,252.56 167.124,252.56 C170.372,252.56 173.852,250.356 177.912,244.498 C180.174,241.25 180.87,239.22 181.856,236.958 L182.088,236.958 C181.334,240.38 179.826,246.064 179.826,248.21 L179.826,248.21 Z M211.552,245.252 C212.654,250.53 213.814,252.56 217.178,252.56 C220.832,252.56 223.732,250.124 226.574,245.774 L224.834,244.498 C222.688,247.05 221.122,248.616 219.672,248.616 C218.048,248.616 217.41,247.572 216.482,243.106 L214.684,234.522 C217.584,228.664 220.136,225.01 222.166,225.01 C223.674,225.01 224.776,225.822 225.24,228.432 L226.748,228.432 C227.734,227.852 229.01,226.808 229.01,224.894 C229.01,221.936 226.98,220.66 224.544,220.66 C219.962,220.66 216.888,225.01 213.988,230.868 L213.408,228.084 C212.306,222.748 211.262,220.66 207.956,220.66 C205.114,220.66 201.866,222.11 198.56,227.852 L200.416,229.128 C202.156,226.75 203.606,224.894 205.172,224.894 C206.796,224.894 207.492,225.996 208.536,231.042 L209.812,237.074 C206.564,243.86 203.49,248.21 201.286,248.21 C199.778,248.21 198.676,247.398 198.212,244.788 L196.704,244.788 C195.718,245.368 194.442,246.412 194.442,248.326 C194.442,251.284 196.472,252.56 198.908,252.56 C203.316,252.56 206.912,248.21 210.566,240.67 L211.552,245.252 Z M257.604,233.072 L267.406,233.072 C277.614,233.072 284.052,227.33 284.052,218.746 C284.052,211.38 279.064,206.74 267.406,206.74 L247.744,206.74 L247.454,209.234 C251.398,209.408 253.602,209.93 253.602,213.004 C253.602,213.294 253.544,213.932 253.486,214.396 L249.774,244.788 C249.31,248.674 246.816,249.312 242.524,249.486 L242.234,251.98 L263.172,251.98 L263.462,249.486 C257.662,249.196 256.212,248.036 256.212,245.6 C256.212,244.846 256.27,244.092 256.444,242.584 L257.604,233.072 Z M260.446,209.93 L266.536,209.93 C273.844,209.93 277.034,213.178 277.034,219.152 C277.034,226.75 272.104,229.882 265.028,229.882 L258.01,229.882 L260.446,209.93 Z M286.662,248.21 C286.662,250.936 288.17,252.56 291.186,252.56 C294.782,252.56 297.914,250.124 300.582,245.774 L298.726,244.498 C296.696,247.05 295.072,248.616 293.738,248.616 C292.868,248.616 292.404,248.094 292.404,246.992 C292.404,240.844 297.914,219.5 299.654,205 L297.798,205 L289.098,207.726 L288.808,208.886 L292.984,211.206 C292.114,220.312 286.662,242.12 286.662,248.21 L286.662,248.21 Z M313.226,248.674 C310.848,248.674 310.21,246.006 310.21,242.12 C310.268,233.362 315.314,223.56 323.144,223.56 C325.174,223.56 326.508,224.314 327.32,225.938 C327.03,229.65 324.42,237.016 320.824,242.178 C317.576,246.818 315.43,248.674 313.226,248.674 L313.226,248.674 Z M324.014,248.21 C324.014,250.936 325.464,252.56 328.48,252.56 C332.076,252.56 335.208,250.124 337.876,245.774 L336.02,244.498 C333.99,247.05 332.366,248.616 331.032,248.616 C330.162,248.616 329.698,248.094 329.698,246.992 C329.698,243.802 331.38,233.884 333.178,226.692 L335.208,220.196 L333.178,220.196 L329.408,223.85 C328.596,222.11 326.624,220.66 323.26,220.66 C313.864,220.66 304.526,231.332 304.526,243.396 C304.526,248.674 306.614,252.56 311.312,252.56 C314.56,252.56 318.04,250.356 322.1,244.498 C324.362,241.25 325.058,239.22 326.044,236.958 L326.276,236.958 C325.522,240.38 324.014,246.064 324.014,248.21 L324.014,248.21 Z M363.918,248.21 C363.918,250.936 365.6,252.56 368.616,252.56 C372.212,252.56 375.344,250.124 378.012,245.774 L376.156,244.498 C374.126,247.05 372.502,248.616 371.168,248.616 C370.298,248.616 369.834,248.094 369.834,246.992 C369.834,243.512 374.068,230.81 374.068,225.474 C374.068,222.4 372.908,220.66 369.892,220.66 C362.12,220.66 355.682,231.854 351.1,242.7 L350.868,242.7 L354.116,229.476 C354.754,226.982 354.928,225.59 354.928,224.778 C354.928,222.4 353.942,220.66 350.694,220.66 C347.504,220.66 343.676,222.4 340.66,228.142 L342.574,229.418 C344.256,227.04 346.228,224.894 347.794,224.894 C348.896,224.894 349.186,225.416 349.186,226.17 C349.186,226.576 349.07,227.562 348.954,228.258 L344.72,251.98 L350.346,251.98 C355.276,236.32 363.222,224.836 366.934,224.836 C368.036,224.836 368.152,225.822 368.152,226.634 C368.152,231.042 363.918,244.382 363.918,248.21 L363.918,248.21 Z M414.784,242.584 L407.476,214.628 C407.186,213.526 407.07,212.772 407.07,212.018 C407.07,210.046 408.984,209.408 413.566,209.234 L413.856,206.74 L396.514,206.74 L396.224,209.234 C398.022,209.524 399.472,209.93 399.936,211.612 L411.13,252.56 L413.102,252.56 L435.49,211.612 C436.418,209.872 437.868,209.524 439.782,209.234 L440.072,206.74 L425.166,206.74 L424.876,209.234 C429.458,209.408 430.676,209.988 430.676,211.844 C430.676,212.772 430.212,213.874 429.4,215.44 L414.784,242.584 Z M451.846,224.778 C451.846,222.4 450.686,220.66 447.438,220.66 C444.248,220.66 440.42,222.4 437.404,228.142 L439.318,229.418 C441,227.04 442.972,224.894 444.538,224.894 C445.64,224.894 445.93,225.416 445.93,226.17 C445.93,231.332 442.102,242.816 442.102,248.21 C442.102,250.936 443.784,252.56 446.8,252.56 C450.396,252.56 453.528,250.124 456.196,245.774 L454.34,244.498 C452.31,247.05 450.686,248.616 449.352,248.616 C448.482,248.616 448.018,248.094 448.018,246.992 C448.018,242.12 451.846,230.288 451.846,224.778 L451.846,224.778 Z M450.106,215.672 C452.426,215.672 454.34,213.758 454.34,211.38 C454.34,209.234 452.716,207.552 450.512,207.552 C448.192,207.552 446.278,209.466 446.278,211.844 C446.278,213.99 447.902,215.672 450.106,215.672 L450.106,215.672 Z M464.49,242.062 C460.778,244.846 459.386,247.05 459.386,250.008 C459.386,251.574 460.082,252.56 461.242,252.56 C462.054,252.56 462.576,252.328 463.156,251.632 L463.156,248.616 C463.62,248.384 464.316,248.094 465.244,248.094 C470.174,248.094 473.654,252.56 479.918,252.56 C484.5,252.56 487.632,250.008 487.632,245.658 C487.632,243.396 486.646,241.54 485.08,240.554 L483.282,242.178 C484.326,242.99 484.848,244.034 484.848,245.252 C484.848,246.992 483.572,247.978 481.948,247.978 C477.83,247.978 474.466,243.918 469.13,243.918 C467.796,243.918 466.636,244.266 465.882,244.556 L484.674,230.694 C488.792,227.62 489.894,225.648 489.894,223.096 C489.894,221.762 489.314,220.66 487.98,220.66 C487.284,220.66 486.646,220.892 486.182,221.472 L486.182,224.256 C479.338,223.212 476.264,220.66 471.856,220.66 C467.68,220.66 463.968,223.328 463.968,227.968 C463.968,230.23 465.128,231.796 466.752,232.608 L468.376,230.694 C467.448,230.172 466.984,229.302 466.984,228.49 C466.984,226.576 468.608,225.706 470.522,225.706 C474.524,225.706 478.004,228.084 482.876,228.258 L464.49,242.062 Z" id="Tax-Plan-Viz" fill="#087ED7" sketch:type="MSShapeGroup"></path>
                <path d="M614,187.103 C614,187.103 611.609,186.72 607.593,185.764 C605.585,185.381 602.907,184.712 599.848,184.042 C596.787,183.373 593.154,182.703 589.138,182.321 C581.106,180.982 571.352,179.643 560.355,178.592 C549.262,177.253 536.544,176.201 522.87,175.531 C509.1,174.862 494.374,174.192 478.691,173.81 C470.946,173.81 462.627,173.427 454.593,173.81 C446.178,173.81 437.859,173.81 429.444,174.192 C412.328,174.575 394.637,175.245 376.564,176.201 C358.491,177.253 340.418,178.209 321.961,179.548 C312.877,180.217 303.888,180.887 294.517,181.939 C285.433,182.608 276.444,183.661 267.359,184.617 C262.96,184.999 258.275,185.669 253.971,185.956 C249.573,186.338 245.269,187.008 240.584,187.294 C236.185,187.964 231.882,188.347 227.483,188.633 C223.084,189.303 218.781,189.685 214.382,189.972 C197.265,191.694 180.53,193.033 164.465,193.319 C156.433,193.702 148.687,193.989 141.324,193.989 C133.961,193.989 126.598,193.989 119.521,193.606 C105.751,193.224 93.033,192.267 81.654,191.215 C70.275,189.876 60.521,188.155 52.488,186.147 C48.471,185.095 45.125,184.139 42.065,183.087 C39.005,182.035 36.328,181.079 34.319,180.027 C32.311,178.974 30.59,178.305 29.92,177.636 C28.868,176.966 28.582,176.583 28.582,176.583 C28.582,176.583 29.251,176.966 30.303,177.253 C31.355,177.636 32.98,178.305 34.989,178.592 C36.997,179.261 39.675,179.644 42.735,180.313 C45.795,180.983 49.429,181.365 53.445,181.652 C57.461,182.035 61.86,182.322 66.546,182.322 C71.232,182.322 76.587,182.704 81.942,182.322 C93.035,182.322 105.753,181.652 119.14,180.983 C125.834,180.6 133.197,179.931 140.56,179.644 C147.923,178.974 155.669,178.305 163.319,177.636 C179.097,176.297 195.449,174.575 212.566,172.568 C221.268,171.516 229.97,170.559 238.671,169.507 C247.372,168.455 256.457,167.499 265.446,166.447 C274.53,165.395 283.519,164.725 292.89,164.056 C301.974,163.386 311.346,162.717 320.335,162.048 C338.79,160.709 357.15,160.039 375.224,159.657 C393.297,159.274 411.083,159.274 428.487,159.657 C437.189,160.039 445.604,160.039 453.924,160.709 C462.339,161.091 470.371,161.761 478.404,162.048 C494.181,163.1 509.195,164.725 522.965,166.446 C536.736,168.454 549.453,170.463 560.45,172.47 C571.543,174.861 581.201,176.868 588.946,179.163 C592.963,180.215 596.309,181.172 599.369,182.224 C602.43,183.276 605.107,183.945 607.115,184.615 C611.609,186.433 614,187.103 614,187.103 L614,187.103 Z" id="Shape" fill="#EA504E" sketch:type="MSShapeGroup"></path>
                <path d="M144.577,109.741 C144.577,92.338 134.824,82.297 114.455,79.237 C131.572,75.508 139.604,66.519 139.604,51.793 C139.604,29.99 125.834,21.002 91.696,21.002 L36.521,21.002 L36.521,34.772 L45.893,34.772 C48.57,34.772 49.622,36.111 49.622,39.84 L49.622,124.181 C49.622,128.198 48.57,129.536 45.893,129.536 L36.521,129.536 L36.521,143.306 L91.41,143.306 C128.512,143.21 144.577,133.17 144.577,109.741 L144.577,109.741 Z M75.631,34.771 L91.027,34.771 C106.805,34.771 112.447,39.839 112.447,54.852 C112.447,68.91 105.084,74.647 89.688,74.647 L75.631,74.647 L75.631,34.771 L75.631,34.771 Z M75.631,86.696 L94.087,86.696 C110.152,86.696 117.228,92.72 117.228,108.498 C117.228,123.894 110.534,129.632 92.748,129.632 L75.631,129.632 L75.631,86.696 L75.631,86.696 Z" id="Shape" fill="#087ED7" sketch:type="MSShapeGroup"></path>
                <path d="M453.254,38.788 L465.398,29.417 L477.447,38.788 L472.762,24.062 L484.811,14.978 L470.084,14.978 L465.398,0.251 L460.617,14.978 L445.604,14.978 L457.653,24.062 L453.254,38.788 Z" id="Shape" fill="#087ED7" sketch:type="MSShapeGroup"></path>
                <g id="XMLID_1_" transform="translate(0.000000, 42.000000)" sketch:type="MSShapeGroup">
                    <g id="Group">
                        <path d="M579.19,114.6 C583.5,115.941 585.03,117.281 585.03,117.281 C585.03,117.281 583.019,116.991 578.62,115.941 C576.61,115.27 573.93,114.88 570.87,114.22 C567.53,113.55 564.18,112.88 560.16,112.21 C552.13,110.87 542.47,109.53 531.38,108.19 C520.29,106.849 507.95,105.9 494.18,104.839 C480.51,103.889 465.691,103.219 450,102.839 C434.32,102.449 417.59,102.449 400.47,102.839 C383.45,103.219 365.66,103.499 347.59,104.559 C329.52,105.23 311.06,106.57 292.99,107.9 C274.91,109.62 256.84,111.25 238.77,112.969 C234.46,113.259 229.78,113.929 225.38,114.309 C220.69,114.599 216.39,115.269 211.99,115.65 C203.29,116.7 194.59,117.66 185.89,118.71 C168.87,120.43 152.13,121.77 136.35,122.44 C120.58,123.11 105.56,123.11 91.79,123.11 C77.73,122.82 65.02,122.15 53.92,121.099 C42.93,120.049 33.17,118.709 25.14,116.7 C21.12,115.75 17.78,114.69 14.72,114.019 C11.66,112.969 8.98,112.019 6.97,110.959 C4.68,109.909 3.34,109.239 2.29,108.569 C3.24,108.959 4.96,109.619 6.97,110.289 C11.37,111.629 17.4,112.969 25.43,113.639 C29.44,114.019 33.84,114.309 38.53,114.69 C43.21,115.08 48.19,115.08 53.92,115.08 C59.66,115.08 65.3,115.08 71.71,114.69 C78.12,114.69 84.81,114.41 91.5,114.019 C105.18,113.349 119.91,112.299 135.68,110.959 C143.72,110.289 151.75,109.619 159.78,108.569 C168.2,107.899 176.52,106.949 184.93,105.899 C188.28,105.229 191.62,104.939 194.97,104.558 C163.22,103.218 147.45,82.178 147.45,53.018 C147.45,22.218 166.86,1.468 195.35,1.468 C224.52,1.468 240.58,20.498 240.58,53.018 L240.58,58.079 L173.65,58.079 C173.93,76.539 182.64,88.589 199.75,88.589 C212.85,88.589 220.5,81.61 224.9,69.849 L239.34,76.539 C235.33,88.299 227.58,97.959 214.19,102.359 C221.84,101.399 229.59,100.348 237.62,99.678 C239.34,99.388 241.35,99.388 243.36,99.008 L243.36,86.578 L251.77,86.578 C254.07,86.578 255.12,85.908 255.12,81.218 L255.12,24.61 C255.12,19.929 254.16,18.589 251.77,18.589 L242.69,18.589 L242.69,3.48 L258.08,3.48 C267.46,3.48 275.77,2.53 280.17,1.469 L280.17,22.889 C284.57,7.209 294.23,0.799 305.32,0.799 C319,0.799 327.41,10.169 327.41,24.61 C327.41,37.33 320.05,45.75 309.34,45.75 C302.65,45.75 296.62,39.72 296.62,32.36 C296.62,27 299.97,21.36 305.71,19.639 C304.37,18.299 301.98,17.629 299.3,17.629 C286.96,17.629 280.56,29.969 280.56,50.429 L280.56,81.219 C280.56,85.909 281.89,86.579 283.9,86.579 L292.99,86.579 L292.99,94.609 C304.65,93.939 316.7,93.268 328.46,92.888 L328.46,86.479 L336.88,86.479 C339.17,86.479 340.231,85.808 340.231,81.128 L340.231,24.518 C340.231,19.829 339.27,18.489 336.88,18.489 L330.85,18.489 C330.18,14.479 326.84,5.779 321.77,3.388 L343.191,3.388 C352.27,3.388 360.981,2.428 364.991,1.378 L364.991,20.788 C370.731,7.398 381.441,0.708 396.171,0.708 C415.581,0.708 426.001,12.758 426.001,37.238 L426.001,80.748 C426.001,85.428 427.341,86.098 429.351,86.098 L437.761,86.098 L437.761,92.788 L440.822,92.788 L440.822,86.098 L449.242,86.098 C451.252,86.098 452.302,85.149 452.302,80.748 L452.302,26.138 C452.302,19.828 451.632,18.109 448.282,18.109 L440.922,18.109 L440.922,3 L456.032,3 C465.402,3 473.721,2.05 478.122,1 L478.122,80.65 C478.122,84.95 479.172,86.009 481.182,86.009 L489.212,86.009 L489.212,96.719 C491.222,96.999 493.233,96.999 495.233,97.379 C504.892,98.719 514.262,100.059 522.682,101.4 C500.592,95.089 489.502,76.349 489.502,51.87 C489.502,21.08 508.912,0.33 537.402,0.33 C566.572,0.33 582.631,19.36 582.631,51.87 L582.631,56.94 L515.7,56.94 C515.98,75.389 524.69,87.44 541.8,87.44 C554.901,87.44 562.55,80.46 566.95,68.7 L581.389,75.389 C576.039,91.07 563.7,103.499 539.889,103.499 C537.879,103.499 535.869,103.119 533.869,103.119 C544.289,105.129 553.659,107.139 561.018,109.149 C565.039,110.199 568.388,111.159 571.449,112.209 C574.51,113.26 577.18,113.93 579.19,114.6 L579.19,114.6 Z M515.22,43.64 L556.72,43.64 C556.43,23.951 550.7,16.201 537.31,16.201 C523.92,16.2 516.56,24.23 515.22,43.64 L515.22,43.64 Z M401.14,80.84 L401.14,37.62 C401.14,23.95 396.451,18.21 386.031,18.21 C373.31,18.21 365.951,28.54 365.951,50.34 L365.951,80.84 C365.951,85.53 367.291,86.2 369.301,86.2 L376.661,86.2 L376.661,91.55 C381.341,91.17 386.031,91.17 390.431,91.55 L390.431,86.2 L397.791,86.2 C400.09,86.2 401.14,85.53 401.14,80.84 L401.14,80.84 Z M174.12,43.64 L215.63,43.64 C215.34,23.951 209.6,16.201 196.21,16.201 C182.83,16.2 175.46,24.23 174.12,43.64 L174.12,43.64 Z" id="Shape" fill="#087ED7"></path>
                        <path d="M0.95,107.52 C0.95,107.52 1.62,107.52 2.29,108.571 C1.62,107.9 0.95,107.52 0.95,107.52 L0.95,107.52 Z" id="Shape" fill="#000000"></path>
                    </g>
                </g>
            </g>
        </g>
    </g>
</svg>